<svg xmlns="http://www.w3.org/2000/svg" xmlns:xlink="http://www.w3.org/1999/xlink" width="541" zoomAndPan="magnify" viewBox="0 0 405.75 116.999995" height="156" preserveAspectRatio="xMidYMid meet" version="1.0"><defs><g/><clipPath id="3b7a9435fa"><path d="M 8.355469 24.050781 L 393.191406 24.050781 L 393.191406 72.652344 L 8.355469 72.652344 Z M 8.355469 24.050781 " clip-rule="nonzero"/></clipPath><clipPath id="d2f405dbc3"><path d="M 20.347656 24.050781 L 381.148438 24.050781 C 387.773438 24.050781 393.144531 29.417969 393.144531 36.042969 L 393.144531 60.660156 C 393.144531 67.28125 387.773438 72.652344 381.148438 72.652344 L 20.347656 72.652344 C 13.726562 72.652344 8.355469 67.28125 8.355469 60.660156 L 8.355469 36.042969 C 8.355469 29.417969 13.726562 24.050781 20.347656 24.050781 Z M 20.347656 24.050781 " clip-rule="nonzero"/></clipPath><clipPath id="4970d7db71"><path d="M 8.378906 24.050781 L 393.027344 24.050781 L 393.027344 72.691406 L 8.378906 72.691406 Z M 8.378906 24.050781 " clip-rule="nonzero"/></clipPath><clipPath id="ff73f6317b"><path d="M 20.371094 24.050781 L 381.125 24.050781 C 387.75 24.050781 393.117188 29.417969 393.117188 36.039062 L 393.117188 60.65625 C 393.117188 67.277344 387.75 72.644531 381.125 72.644531 L 20.371094 72.644531 C 13.746094 72.644531 8.378906 67.277344 8.378906 60.65625 L 8.378906 36.039062 C 8.378906 29.417969 13.746094 24.050781 20.371094 24.050781 Z M 20.371094 24.050781 " clip-rule="nonzero"/></clipPath><clipPath id="7606e518c7"><path d="M 26.367188 76.707031 L 87.234375 76.707031 L 87.234375 99.859375 L 26.367188 99.859375 Z M 26.367188 76.707031 " clip-rule="nonzero"/></clipPath><clipPath id="89bb75f121"><path d="M 33.863281 76.707031 L 79.671875 76.707031 C 83.8125 76.707031 87.167969 80.0625 87.167969 84.199219 L 87.167969 92.363281 C 87.167969 96.503906 83.8125 99.859375 79.671875 99.859375 L 33.863281 99.859375 C 29.722656 99.859375 26.367188 96.503906 26.367188 92.363281 L 26.367188 84.199219 C 26.367188 80.0625 29.722656 76.707031 33.863281 76.707031 Z M 33.863281 76.707031 " clip-rule="nonzero"/></clipPath><clipPath id="6287b8999e"><path d="M 96.964844 76.707031 L 157.832031 76.707031 L 157.832031 99.859375 L 96.964844 99.859375 Z M 96.964844 76.707031 " clip-rule="nonzero"/></clipPath><clipPath id="7c5551edc1"><path d="M 104.460938 76.707031 L 150.269531 76.707031 C 154.410156 76.707031 157.765625 80.0625 157.765625 84.199219 L 157.765625 92.363281 C 157.765625 96.503906 154.410156 99.859375 150.269531 99.859375 L 104.460938 99.859375 C 100.320312 99.859375 96.964844 96.503906 96.964844 92.363281 L 96.964844 84.199219 C 96.964844 80.0625 100.320312 76.707031 104.460938 76.707031 Z M 104.460938 76.707031 " clip-rule="nonzero"/></clipPath><clipPath id="8c90291522"><path d="M 167.496094 76.707031 L 228.363281 76.707031 L 228.363281 99.859375 L 167.496094 99.859375 Z M 167.496094 76.707031 " clip-rule="nonzero"/></clipPath><clipPath id="9c3ca9fd7e"><path d="M 174.988281 76.707031 L 220.800781 76.707031 C 224.941406 76.707031 228.296875 80.0625 228.296875 84.199219 L 228.296875 92.363281 C 228.296875 96.503906 224.941406 99.859375 220.800781 99.859375 L 174.988281 99.859375 C 170.851562 99.859375 167.496094 96.503906 167.496094 92.363281 L 167.496094 84.199219 C 167.496094 80.0625 170.851562 76.707031 174.988281 76.707031 Z M 174.988281 76.707031 " clip-rule="nonzero"/></clipPath><clipPath id="09a5a51e49"><path d="M 238.023438 76.707031 L 298.890625 76.707031 L 298.890625 99.859375 L 238.023438 99.859375 Z M 238.023438 76.707031 " clip-rule="nonzero"/></clipPath><clipPath id="55e9e60955"><path d="M 245.519531 76.707031 L 291.328125 76.707031 C 295.46875 76.707031 298.824219 80.0625 298.824219 84.199219 L 298.824219 92.363281 C 298.824219 96.503906 295.46875 99.859375 291.328125 99.859375 L 245.519531 99.859375 C 241.378906 99.859375 238.023438 96.503906 238.023438 92.363281 L 238.023438 84.199219 C 238.023438 80.0625 241.378906 76.707031 245.519531 76.707031 Z M 245.519531 76.707031 " clip-rule="nonzero"/></clipPath><clipPath id="d330647e61"><path d="M 308.554688 76.707031 L 379 76.707031 L 379 99.859375 L 308.554688 99.859375 Z M 308.554688 76.707031 " clip-rule="nonzero"/></clipPath><clipPath id="acc0187eb9"><path d="M 316.046875 76.707031 L 371.480469 76.707031 C 375.621094 76.707031 378.976562 80.0625 378.976562 84.199219 L 378.976562 92.363281 C 378.976562 96.503906 375.621094 99.859375 371.480469 99.859375 L 316.046875 99.859375 C 311.910156 99.859375 308.554688 96.503906 308.554688 92.363281 L 308.554688 84.199219 C 308.554688 80.0625 311.910156 76.707031 316.046875 76.707031 Z M 316.046875 76.707031 " clip-rule="nonzero"/></clipPath><clipPath id="adc4624fec"><path d="M 0.0078125 0.0351562 L 405.339844 0.0351562 L 405.339844 116.773438 L 0.0078125 116.773438 Z M 0.0078125 0.0351562 " clip-rule="nonzero"/></clipPath><clipPath id="fd0c18e07e"><path d="M 16.496094 0.0351562 L 388.84375 0.0351562 C 393.21875 0.0351562 397.410156 1.773438 400.503906 4.867188 C 403.597656 7.957031 405.332031 12.152344 405.332031 16.523438 L 405.332031 100.34375 C 405.332031 104.714844 403.597656 108.910156 400.503906 112 C 397.410156 115.09375 393.21875 116.832031 388.84375 116.832031 L 16.496094 116.832031 C 12.125 116.832031 7.929688 115.09375 4.835938 112 C 1.746094 108.910156 0.0078125 104.714844 0.0078125 100.34375 L 0.0078125 16.523438 C 0.0078125 12.152344 1.746094 7.957031 4.835938 4.867188 C 7.929688 1.773438 12.125 0.0351562 16.496094 0.0351562 Z M 16.496094 0.0351562 " clip-rule="nonzero"/></clipPath></defs><g clip-path="url(#3b7a9435fa)"><g clip-path="url(#d2f405dbc3)"><path fill="#ffffff" d="M 8.355469 24.050781 L 393.191406 24.050781 L 393.191406 72.652344 L 8.355469 72.652344 Z M 8.355469 24.050781 " fill-opacity="1" fill-rule="nonzero"/></g></g><g clip-path="url(#4970d7db71)"><g clip-path="url(#ff73f6317b)"><path stroke-linecap="butt" transform="matrix(0.405342, 0, 0, 0.405342, 8.378379, 24.04915)" fill="none" stroke-linejoin="miter" d="M 29.586682 0.0040256 L 919.586245 0.0040256 C 935.930481 0.0040256 949.171625 13.24517 949.171625 29.579769 L 949.171625 90.311714 C 949.171625 106.646313 935.930481 119.887457 919.586245 119.887457 L 29.586682 119.887457 C 13.242445 119.887457 0.00130102 106.646313 0.00130102 90.311714 L 0.00130102 29.579769 C 0.00130102 13.24517 13.242445 0.0040256 29.586682 0.0040256 Z M 29.586682 0.0040256 " stroke="#ffeca1" stroke-width="11.094911" stroke-opacity="1" stroke-miterlimit="4"/></g></g><g clip-path="url(#7606e518c7)"><g clip-path="url(#89bb75f121)"><path fill="#00bf63" d="M 26.367188 76.707031 L 87.144531 76.707031 L 87.144531 99.859375 L 26.367188 99.859375 Z M 26.367188 76.707031 " fill-opacity="1" fill-rule="nonzero"/></g></g><g clip-path="url(#6287b8999e)"><g clip-path="url(#7c5551edc1)"><path fill="#0097b2" d="M 96.964844 76.707031 L 157.742188 76.707031 L 157.742188 99.859375 L 96.964844 99.859375 Z M 96.964844 76.707031 " fill-opacity="1" fill-rule="nonzero"/></g></g><g clip-path="url(#8c90291522)"><g clip-path="url(#9c3ca9fd7e)"><path fill="#ffde59" d="M 167.496094 76.707031 L 228.273438 76.707031 L 228.273438 99.859375 L 167.496094 99.859375 Z M 167.496094 76.707031 " fill-opacity="1" fill-rule="nonzero"/></g></g><g clip-path="url(#09a5a51e49)"><g clip-path="url(#55e9e60955)"><path fill="#38b6ff" d="M 238.023438 76.707031 L 298.800781 76.707031 L 298.800781 99.859375 L 238.023438 99.859375 Z M 238.023438 76.707031 " fill-opacity="1" fill-rule="nonzero"/></g></g><g clip-path="url(#d330647e61)"><g clip-path="url(#acc0187eb9)"><path fill="#38b6ff" d="M 308.554688 76.707031 L 379.007812 76.707031 L 379.007812 99.859375 L 308.554688 99.859375 Z M 308.554688 76.707031 " fill-opacity="1" fill-rule="nonzero"/></g></g><g clip-path="url(#adc4624fec)"><g clip-path="url(#fd0c18e07e)"><path stroke-linecap="butt" transform="matrix(0.405342, 0, 0, 0.405342, 0.00776877, 0.0360187)" fill="none" stroke-linejoin="miter" d="M 40.677599 -0.00212763 L 959.27963 -0.00212763 C 970.072995 -0.00212763 980.413423 4.286307 988.045874 11.918758 C 995.678324 19.541571 999.957122 29.891637 999.957122 40.675364 L 999.957122 247.464659 C 999.957122 258.248386 995.678324 268.598452 988.045874 276.221265 C 980.413423 283.853716 970.072995 288.14215 959.27963 288.14215 L 40.677599 288.14215 C 29.893872 288.14215 19.543807 283.853716 11.911356 276.221265 C 4.288543 268.598452 0.000107896 258.248386 0.000107896 247.464659 L 0.000107896 40.675364 C 0.000107896 29.891637 4.288543 19.541571 11.911356 11.918758 C 19.543807 4.286307 29.893872 -0.00212763 40.677599 -0.00212763 Z M 40.677599 -0.00212763 " stroke="#fff3ef" stroke-width="14.793214" stroke-opacity="1" stroke-miterlimit="4"/></g></g><g fill="#ffffff" fill-opacity="1"><g transform="translate(44.333942, 91.781296)"><g><path d="M 3.375 0.109375 C 2.882812 0.109375 2.445312 0.046875 2.0625 -0.078125 C 1.675781 -0.210938 1.351562 -0.382812 1.09375 -0.59375 C 0.84375 -0.8125 0.65625 -1.050781 0.53125 -1.3125 L 1.03125 -1.921875 L 1.15625 -1.921875 C 1.632812 -1.109375 2.375 -0.703125 3.375 -0.703125 C 3.957031 -0.703125 4.390625 -0.820312 4.671875 -1.0625 C 4.953125 -1.3125 5.09375 -1.648438 5.09375 -2.078125 C 5.09375 -2.335938 5.046875 -2.554688 4.953125 -2.734375 C 4.859375 -2.910156 4.703125 -3.0625 4.484375 -3.1875 C 4.273438 -3.3125 3.984375 -3.414062 3.609375 -3.5 L 2.71875 -3.734375 C 2.039062 -3.890625 1.539062 -4.144531 1.21875 -4.5 C 0.90625 -4.851562 0.75 -5.300781 0.75 -5.84375 C 0.75 -6.226562 0.847656 -6.570312 1.046875 -6.875 C 1.242188 -7.175781 1.53125 -7.410156 1.90625 -7.578125 C 2.289062 -7.742188 2.742188 -7.828125 3.265625 -7.828125 C 3.847656 -7.828125 4.335938 -7.742188 4.734375 -7.578125 C 5.140625 -7.421875 5.460938 -7.175781 5.703125 -6.84375 L 5.265625 -6.25 L 5.125 -6.25 C 4.90625 -6.519531 4.644531 -6.71875 4.34375 -6.84375 C 4.039062 -6.96875 3.679688 -7.03125 3.265625 -7.03125 C 2.734375 -7.03125 2.332031 -6.925781 2.0625 -6.71875 C 1.789062 -6.519531 1.65625 -6.234375 1.65625 -5.859375 C 1.65625 -5.515625 1.753906 -5.238281 1.953125 -5.03125 C 2.148438 -4.820312 2.488281 -4.664062 2.96875 -4.5625 L 3.890625 -4.328125 C 4.640625 -4.160156 5.179688 -3.894531 5.515625 -3.53125 C 5.859375 -3.164062 6.03125 -2.695312 6.03125 -2.125 C 6.03125 -1.6875 5.929688 -1.300781 5.734375 -0.96875 C 5.535156 -0.632812 5.238281 -0.367188 4.84375 -0.171875 C 4.445312 0.015625 3.957031 0.109375 3.375 0.109375 Z M 3.375 0.109375 "/></g></g></g><g fill="#ffffff" fill-opacity="1"><g transform="translate(50.94455, 91.781296)"><g><path d="M 2.40625 0.109375 C 1.832031 0.109375 1.382812 -0.0351562 1.0625 -0.328125 C 0.738281 -0.628906 0.578125 -1.0625 0.578125 -1.625 C 0.578125 -1.96875 0.644531 -2.253906 0.78125 -2.484375 C 0.925781 -2.722656 1.148438 -2.914062 1.453125 -3.0625 C 1.753906 -3.21875 2.144531 -3.335938 2.625 -3.421875 C 3.039062 -3.492188 3.359375 -3.570312 3.578125 -3.65625 C 3.804688 -3.75 3.957031 -3.847656 4.03125 -3.953125 C 4.101562 -4.066406 4.140625 -4.203125 4.140625 -4.359375 C 4.140625 -4.628906 4.046875 -4.832031 3.859375 -4.96875 C 3.679688 -5.113281 3.394531 -5.1875 3 -5.1875 C 2.625 -5.1875 2.300781 -5.113281 2.03125 -4.96875 C 1.757812 -4.820312 1.507812 -4.601562 1.28125 -4.3125 L 1.1875 -4.3125 L 0.765625 -4.90625 C 1.003906 -5.21875 1.3125 -5.46875 1.6875 -5.65625 C 2.070312 -5.84375 2.507812 -5.9375 3 -5.9375 C 3.6875 -5.9375 4.191406 -5.785156 4.515625 -5.484375 C 4.835938 -5.179688 5 -4.765625 5 -4.234375 L 5 -1.140625 C 5 -0.816406 5.140625 -0.65625 5.421875 -0.65625 C 5.503906 -0.65625 5.59375 -0.671875 5.6875 -0.703125 L 5.75 -0.6875 L 5.859375 -0.09375 C 5.796875 -0.0507812 5.710938 -0.0195312 5.609375 0 C 5.503906 0.03125 5.394531 0.046875 5.28125 0.046875 C 4.957031 0.046875 4.710938 -0.0195312 4.546875 -0.15625 C 4.390625 -0.300781 4.289062 -0.515625 4.25 -0.796875 L 4.140625 -0.796875 C 3.972656 -0.492188 3.75 -0.265625 3.46875 -0.109375 C 3.1875 0.0351562 2.832031 0.109375 2.40625 0.109375 Z M 2.59375 -0.578125 C 2.914062 -0.578125 3.195312 -0.648438 3.4375 -0.796875 C 3.675781 -0.953125 3.859375 -1.164062 3.984375 -1.4375 C 4.109375 -1.707031 4.171875 -2.019531 4.171875 -2.375 L 4.171875 -3.109375 L 4.078125 -3.125 C 3.941406 -3.039062 3.78125 -2.96875 3.59375 -2.90625 C 3.40625 -2.84375 3.144531 -2.785156 2.8125 -2.734375 C 2.476562 -2.691406 2.207031 -2.617188 2 -2.515625 C 1.800781 -2.421875 1.660156 -2.300781 1.578125 -2.15625 C 1.492188 -2.007812 1.453125 -1.832031 1.453125 -1.625 C 1.453125 -1.28125 1.550781 -1.019531 1.75 -0.84375 C 1.957031 -0.664062 2.238281 -0.578125 2.59375 -0.578125 Z M 2.59375 -0.578125 "/></g></g></g><g fill="#ffffff" fill-opacity="1"><g transform="translate(56.964266, 91.781296)"><g><path d="M 3.6875 0 L 2.5 0 L 0.28125 -5.828125 L 1.21875 -5.828125 L 3.046875 -0.984375 L 3.171875 -0.984375 L 4.984375 -5.828125 L 5.890625 -5.828125 Z M 3.6875 0 "/></g></g></g><g fill="#ffffff" fill-opacity="1"><g transform="translate(63.131704, 91.781296)"><g><path d="M 5.546875 -2.71875 L 1.546875 -2.71875 C 1.566406 -2.007812 1.734375 -1.488281 2.046875 -1.15625 C 2.367188 -0.820312 2.804688 -0.65625 3.359375 -0.65625 C 3.765625 -0.65625 4.09375 -0.726562 4.34375 -0.875 C 4.601562 -1.03125 4.804688 -1.265625 4.953125 -1.578125 L 5.0625 -1.578125 L 5.625 -1.25 C 5.457031 -0.820312 5.1875 -0.488281 4.8125 -0.25 C 4.4375 -0.0078125 3.953125 0.109375 3.359375 0.109375 C 2.785156 0.109375 2.296875 0 1.890625 -0.21875 C 1.492188 -0.4375 1.1875 -0.769531 0.96875 -1.21875 C 0.75 -1.675781 0.640625 -2.238281 0.640625 -2.90625 C 0.640625 -3.570312 0.753906 -4.128906 0.984375 -4.578125 C 1.210938 -5.035156 1.523438 -5.375 1.921875 -5.59375 C 2.328125 -5.820312 2.785156 -5.9375 3.296875 -5.9375 C 4.046875 -5.9375 4.628906 -5.722656 5.046875 -5.296875 C 5.460938 -4.878906 5.675781 -4.257812 5.6875 -3.4375 C 5.6875 -3.113281 5.675781 -2.894531 5.65625 -2.78125 Z M 4.828125 -3.4375 C 4.816406 -4.050781 4.679688 -4.5 4.421875 -4.78125 C 4.160156 -5.0625 3.785156 -5.203125 3.296875 -5.203125 C 2.785156 -5.203125 2.382812 -5.0625 2.09375 -4.78125 C 1.800781 -4.5 1.625 -4.050781 1.5625 -3.4375 Z M 4.828125 -3.4375 "/></g></g></g><g fill="#ffffff" fill-opacity="1"><g transform="translate(106.134637, 91.72725)"><g><path d="M 6.59375 0 L 5.671875 0 L 5 -2.015625 L 1.875 -2.015625 L 1.1875 0 L 0.296875 0 L 2.84375 -7.328125 L 4.046875 -7.328125 Z M 3.375 -6.4375 L 2.109375 -2.734375 L 4.75 -2.734375 L 3.5 -6.4375 Z M 3.375 -6.4375 "/></g></g></g><g fill="#ffffff" fill-opacity="1"><g transform="translate(113.022445, 91.72725)"><g><path d="M 0.96875 2.234375 L 0.96875 -5.53125 L 1.78125 -5.53125 L 1.78125 -4.703125 L 1.890625 -4.6875 C 2.296875 -5.320312 2.894531 -5.640625 3.6875 -5.640625 C 4.15625 -5.640625 4.5625 -5.53125 4.90625 -5.3125 C 5.25 -5.101562 5.515625 -4.785156 5.703125 -4.359375 C 5.890625 -3.929688 5.984375 -3.398438 5.984375 -2.765625 C 5.984375 -2.128906 5.882812 -1.597656 5.6875 -1.171875 C 5.488281 -0.742188 5.210938 -0.421875 4.859375 -0.203125 C 4.503906 0.00390625 4.097656 0.109375 3.640625 0.109375 C 3.265625 0.109375 2.929688 0.046875 2.640625 -0.078125 C 2.347656 -0.210938 2.097656 -0.429688 1.890625 -0.734375 L 1.78125 -0.71875 L 1.78125 2.234375 Z M 3.453125 -0.625 C 4.578125 -0.625 5.140625 -1.335938 5.140625 -2.765625 C 5.140625 -4.191406 4.578125 -4.90625 3.453125 -4.90625 C 3.128906 -4.90625 2.835938 -4.828125 2.578125 -4.671875 C 2.328125 -4.523438 2.128906 -4.289062 1.984375 -3.96875 C 1.847656 -3.65625 1.78125 -3.253906 1.78125 -2.765625 C 1.78125 -2.273438 1.847656 -1.867188 1.984375 -1.546875 C 2.128906 -1.234375 2.328125 -1 2.578125 -0.84375 C 2.835938 -0.695312 3.128906 -0.625 3.453125 -0.625 Z M 3.453125 -0.625 "/></g></g></g><g fill="#ffffff" fill-opacity="1"><g transform="translate(119.619502, 91.72725)"><g><path d="M 0.96875 2.234375 L 0.96875 -5.53125 L 1.78125 -5.53125 L 1.78125 -4.703125 L 1.890625 -4.6875 C 2.296875 -5.320312 2.894531 -5.640625 3.6875 -5.640625 C 4.15625 -5.640625 4.5625 -5.53125 4.90625 -5.3125 C 5.25 -5.101562 5.515625 -4.785156 5.703125 -4.359375 C 5.890625 -3.929688 5.984375 -3.398438 5.984375 -2.765625 C 5.984375 -2.128906 5.882812 -1.597656 5.6875 -1.171875 C 5.488281 -0.742188 5.210938 -0.421875 4.859375 -0.203125 C 4.503906 0.00390625 4.097656 0.109375 3.640625 0.109375 C 3.265625 0.109375 2.929688 0.046875 2.640625 -0.078125 C 2.347656 -0.210938 2.097656 -0.429688 1.890625 -0.734375 L 1.78125 -0.71875 L 1.78125 2.234375 Z M 3.453125 -0.625 C 4.578125 -0.625 5.140625 -1.335938 5.140625 -2.765625 C 5.140625 -4.191406 4.578125 -4.90625 3.453125 -4.90625 C 3.128906 -4.90625 2.835938 -4.828125 2.578125 -4.671875 C 2.328125 -4.523438 2.128906 -4.289062 1.984375 -3.96875 C 1.847656 -3.65625 1.78125 -3.253906 1.78125 -2.765625 C 1.78125 -2.273438 1.847656 -1.867188 1.984375 -1.546875 C 2.128906 -1.234375 2.328125 -1 2.578125 -0.84375 C 2.835938 -0.695312 3.128906 -0.625 3.453125 -0.625 Z M 3.453125 -0.625 "/></g></g></g><g fill="#ffffff" fill-opacity="1"><g transform="translate(126.216558, 91.72725)"><g><path d="M 0.96875 0 L 0.96875 -5.53125 L 1.734375 -5.53125 L 1.734375 -4.65625 L 1.84375 -4.640625 C 2.101562 -5.265625 2.585938 -5.578125 3.296875 -5.578125 C 3.671875 -5.578125 3.953125 -5.507812 4.140625 -5.375 L 3.9375 -4.6875 L 3.828125 -4.65625 C 3.628906 -4.757812 3.40625 -4.8125 3.15625 -4.8125 C 2.707031 -4.8125 2.363281 -4.644531 2.125 -4.3125 C 1.894531 -3.988281 1.78125 -3.457031 1.78125 -2.71875 L 1.78125 0 Z M 0.96875 0 "/></g></g></g><g fill="#ffffff" fill-opacity="1"><g transform="translate(130.487601, 91.72725)"><g><path d="M 3.171875 0.109375 C 2.648438 0.109375 2.195312 0 1.8125 -0.21875 C 1.425781 -0.445312 1.128906 -0.773438 0.921875 -1.203125 C 0.710938 -1.628906 0.609375 -2.148438 0.609375 -2.765625 C 0.609375 -3.367188 0.710938 -3.882812 0.921875 -4.3125 C 1.128906 -4.75 1.425781 -5.078125 1.8125 -5.296875 C 2.195312 -5.523438 2.648438 -5.640625 3.171875 -5.640625 C 3.691406 -5.640625 4.144531 -5.523438 4.53125 -5.296875 C 4.914062 -5.078125 5.210938 -4.75 5.421875 -4.3125 C 5.628906 -3.882812 5.734375 -3.367188 5.734375 -2.765625 C 5.734375 -2.148438 5.628906 -1.628906 5.421875 -1.203125 C 5.210938 -0.773438 4.914062 -0.445312 4.53125 -0.21875 C 4.144531 0 3.691406 0.109375 3.171875 0.109375 Z M 3.171875 -0.625 C 3.722656 -0.625 4.144531 -0.796875 4.4375 -1.140625 C 4.726562 -1.492188 4.875 -2.035156 4.875 -2.765625 C 4.875 -3.492188 4.726562 -4.03125 4.4375 -4.375 C 4.144531 -4.726562 3.722656 -4.90625 3.171875 -4.90625 C 2.617188 -4.90625 2.195312 -4.726562 1.90625 -4.375 C 1.613281 -4.03125 1.46875 -3.492188 1.46875 -2.765625 C 1.46875 -2.035156 1.613281 -1.492188 1.90625 -1.140625 C 2.195312 -0.796875 2.617188 -0.625 3.171875 -0.625 Z M 3.171875 -0.625 "/></g></g></g><g fill="#ffffff" fill-opacity="1"><g transform="translate(136.834009, 91.72725)"><g><path d="M 3.5 0 L 2.375 0 L 0.265625 -5.53125 L 1.15625 -5.53125 L 2.890625 -0.9375 L 3 -0.9375 L 4.734375 -5.53125 L 5.59375 -5.53125 Z M 3.5 0 "/></g></g></g><g fill="#ffffff" fill-opacity="1"><g transform="translate(142.694163, 91.72725)"><g><path d="M 5.265625 -2.578125 L 1.46875 -2.578125 C 1.488281 -1.898438 1.648438 -1.40625 1.953125 -1.09375 C 2.253906 -0.78125 2.664062 -0.625 3.1875 -0.625 C 3.582031 -0.625 3.898438 -0.691406 4.140625 -0.828125 C 4.378906 -0.972656 4.566406 -1.195312 4.703125 -1.5 L 4.8125 -1.5 L 5.34375 -1.1875 C 5.175781 -0.78125 4.914062 -0.460938 4.5625 -0.234375 C 4.21875 -0.00390625 3.757812 0.109375 3.1875 0.109375 C 2.644531 0.109375 2.179688 0.00390625 1.796875 -0.203125 C 1.421875 -0.421875 1.128906 -0.742188 0.921875 -1.171875 C 0.710938 -1.597656 0.609375 -2.128906 0.609375 -2.765625 C 0.609375 -3.390625 0.71875 -3.914062 0.9375 -4.34375 C 1.15625 -4.78125 1.453125 -5.101562 1.828125 -5.3125 C 2.210938 -5.53125 2.648438 -5.640625 3.140625 -5.640625 C 3.847656 -5.640625 4.398438 -5.4375 4.796875 -5.03125 C 5.191406 -4.632812 5.390625 -4.046875 5.390625 -3.265625 C 5.390625 -2.953125 5.382812 -2.742188 5.375 -2.640625 Z M 4.59375 -3.265625 C 4.570312 -3.847656 4.4375 -4.269531 4.1875 -4.53125 C 3.945312 -4.800781 3.597656 -4.9375 3.140625 -4.9375 C 2.648438 -4.9375 2.265625 -4.800781 1.984375 -4.53125 C 1.710938 -4.269531 1.546875 -3.847656 1.484375 -3.265625 Z M 4.59375 -3.265625 "/></g></g></g><g fill="#000000" fill-opacity="1"><g transform="translate(181.459745, 91.781296)"><g><path d="M 1.171875 0 L 1.171875 -7.71875 L 3.96875 -7.71875 C 4.488281 -7.71875 4.921875 -7.628906 5.265625 -7.453125 C 5.617188 -7.285156 5.882812 -7.046875 6.0625 -6.734375 C 6.238281 -6.421875 6.328125 -6.054688 6.328125 -5.640625 C 6.328125 -5.160156 6.207031 -4.765625 5.96875 -4.453125 C 5.726562 -4.140625 5.359375 -3.90625 4.859375 -3.75 L 4.859375 -3.640625 C 5.109375 -3.535156 5.3125 -3.378906 5.46875 -3.171875 C 5.625 -2.960938 5.769531 -2.648438 5.90625 -2.234375 L 6.609375 0 L 5.6875 0 L 4.90625 -2.359375 C 4.8125 -2.640625 4.703125 -2.859375 4.578125 -3.015625 C 4.460938 -3.171875 4.3125 -3.285156 4.125 -3.359375 C 3.945312 -3.429688 3.71875 -3.46875 3.4375 -3.46875 L 2.078125 -3.46875 L 2.078125 0 Z M 3.953125 -4.234375 C 4.429688 -4.234375 4.785156 -4.34375 5.015625 -4.5625 C 5.253906 -4.789062 5.375 -5.132812 5.375 -5.59375 C 5.375 -6.050781 5.253906 -6.390625 5.015625 -6.609375 C 4.785156 -6.835938 4.429688 -6.953125 3.953125 -6.953125 L 2.078125 -6.953125 L 2.078125 -4.234375 Z M 3.953125 -4.234375 "/></g></g></g><g fill="#000000" fill-opacity="1"><g transform="translate(188.603211, 91.781296)"><g><path d="M 5.546875 -2.71875 L 1.546875 -2.71875 C 1.566406 -2.007812 1.734375 -1.488281 2.046875 -1.15625 C 2.367188 -0.820312 2.804688 -0.65625 3.359375 -0.65625 C 3.765625 -0.65625 4.09375 -0.726562 4.34375 -0.875 C 4.601562 -1.03125 4.804688 -1.265625 4.953125 -1.578125 L 5.0625 -1.578125 L 5.625 -1.25 C 5.457031 -0.820312 5.1875 -0.488281 4.8125 -0.25 C 4.4375 -0.0078125 3.953125 0.109375 3.359375 0.109375 C 2.785156 0.109375 2.296875 0 1.890625 -0.21875 C 1.492188 -0.4375 1.1875 -0.769531 0.96875 -1.21875 C 0.75 -1.675781 0.640625 -2.238281 0.640625 -2.90625 C 0.640625 -3.570312 0.753906 -4.128906 0.984375 -4.578125 C 1.210938 -5.035156 1.523438 -5.375 1.921875 -5.59375 C 2.328125 -5.820312 2.785156 -5.9375 3.296875 -5.9375 C 4.046875 -5.9375 4.628906 -5.722656 5.046875 -5.296875 C 5.460938 -4.878906 5.675781 -4.257812 5.6875 -3.4375 C 5.6875 -3.113281 5.675781 -2.894531 5.65625 -2.78125 Z M 4.828125 -3.4375 C 4.816406 -4.050781 4.679688 -4.5 4.421875 -4.78125 C 4.160156 -5.0625 3.785156 -5.203125 3.296875 -5.203125 C 2.785156 -5.203125 2.382812 -5.0625 2.09375 -4.78125 C 1.800781 -4.5 1.625 -4.050781 1.5625 -3.4375 Z M 4.828125 -3.4375 "/></g></g></g><g fill="#000000" fill-opacity="1"><g transform="translate(194.807581, 91.781296)"><g><path d="M 1.453125 -6.953125 C 1.265625 -6.953125 1.113281 -7.007812 1 -7.125 C 0.882812 -7.238281 0.828125 -7.382812 0.828125 -7.5625 C 0.828125 -7.726562 0.882812 -7.867188 1 -7.984375 C 1.113281 -8.097656 1.265625 -8.15625 1.453125 -8.15625 C 1.628906 -8.15625 1.773438 -8.097656 1.890625 -7.984375 C 2.003906 -7.867188 2.0625 -7.726562 2.0625 -7.5625 C 2.0625 -7.382812 2.003906 -7.238281 1.890625 -7.125 C 1.773438 -7.007812 1.628906 -6.953125 1.453125 -6.953125 Z M 0.28125 2.46875 C 0.101562 2.46875 -0.0507812 2.453125 -0.1875 2.421875 C -0.332031 2.398438 -0.472656 2.363281 -0.609375 2.3125 L -0.46875 1.65625 L -0.375 1.625 C -0.195312 1.6875 -0.0195312 1.71875 0.15625 1.71875 C 0.4375 1.71875 0.648438 1.625 0.796875 1.4375 C 0.941406 1.257812 1.015625 1.003906 1.015625 0.671875 L 1.015625 -5.828125 L 1.875 -5.828125 L 1.875 0.640625 C 1.875 1.222656 1.734375 1.671875 1.453125 1.984375 C 1.179688 2.304688 0.789062 2.46875 0.28125 2.46875 Z M 0.28125 2.46875 "/></g></g></g><g fill="#000000" fill-opacity="1"><g transform="translate(197.693457, 91.781296)"><g><path d="M 5.546875 -2.71875 L 1.546875 -2.71875 C 1.566406 -2.007812 1.734375 -1.488281 2.046875 -1.15625 C 2.367188 -0.820312 2.804688 -0.65625 3.359375 -0.65625 C 3.765625 -0.65625 4.09375 -0.726562 4.34375 -0.875 C 4.601562 -1.03125 4.804688 -1.265625 4.953125 -1.578125 L 5.0625 -1.578125 L 5.625 -1.25 C 5.457031 -0.820312 5.1875 -0.488281 4.8125 -0.25 C 4.4375 -0.0078125 3.953125 0.109375 3.359375 0.109375 C 2.785156 0.109375 2.296875 0 1.890625 -0.21875 C 1.492188 -0.4375 1.1875 -0.769531 0.96875 -1.21875 C 0.75 -1.675781 0.640625 -2.238281 0.640625 -2.90625 C 0.640625 -3.570312 0.753906 -4.128906 0.984375 -4.578125 C 1.210938 -5.035156 1.523438 -5.375 1.921875 -5.59375 C 2.328125 -5.820312 2.785156 -5.9375 3.296875 -5.9375 C 4.046875 -5.9375 4.628906 -5.722656 5.046875 -5.296875 C 5.460938 -4.878906 5.675781 -4.257812 5.6875 -3.4375 C 5.6875 -3.113281 5.675781 -2.894531 5.65625 -2.78125 Z M 4.828125 -3.4375 C 4.816406 -4.050781 4.679688 -4.5 4.421875 -4.78125 C 4.160156 -5.0625 3.785156 -5.203125 3.296875 -5.203125 C 2.785156 -5.203125 2.382812 -5.0625 2.09375 -4.78125 C 1.800781 -4.5 1.625 -4.050781 1.5625 -3.4375 Z M 4.828125 -3.4375 "/></g></g></g><g fill="#000000" fill-opacity="1"><g transform="translate(203.897826, 91.781296)"><g><path d="M 3.34375 0.109375 C 2.832031 0.109375 2.367188 -0.00390625 1.953125 -0.234375 C 1.546875 -0.472656 1.222656 -0.816406 0.984375 -1.265625 C 0.753906 -1.722656 0.640625 -2.269531 0.640625 -2.90625 C 0.640625 -3.539062 0.753906 -4.085938 0.984375 -4.546875 C 1.222656 -5.003906 1.546875 -5.347656 1.953125 -5.578125 C 2.367188 -5.816406 2.832031 -5.9375 3.34375 -5.9375 C 3.957031 -5.9375 4.445312 -5.816406 4.8125 -5.578125 C 5.175781 -5.347656 5.441406 -5.039062 5.609375 -4.65625 L 5.015625 -4.234375 L 4.90625 -4.234375 C 4.75 -4.554688 4.546875 -4.789062 4.296875 -4.9375 C 4.046875 -5.082031 3.726562 -5.15625 3.34375 -5.15625 C 2.976562 -5.15625 2.660156 -5.070312 2.390625 -4.90625 C 2.117188 -4.738281 1.910156 -4.484375 1.765625 -4.140625 C 1.617188 -3.804688 1.546875 -3.394531 1.546875 -2.90625 C 1.546875 -2.425781 1.617188 -2.015625 1.765625 -1.671875 C 1.921875 -1.335938 2.128906 -1.082031 2.390625 -0.90625 C 2.660156 -0.738281 2.976562 -0.65625 3.34375 -0.65625 C 3.75 -0.65625 4.082031 -0.742188 4.34375 -0.921875 C 4.613281 -1.109375 4.820312 -1.398438 4.96875 -1.796875 L 5.078125 -1.796875 L 5.65625 -1.46875 C 5.5 -0.976562 5.222656 -0.59375 4.828125 -0.3125 C 4.441406 -0.03125 3.945312 0.109375 3.34375 0.109375 Z M 3.34375 0.109375 "/></g></g></g><g fill="#000000" fill-opacity="1"><g transform="translate(209.896438, 91.781296)"><g><path d="M 3.9375 -0.921875 L 4.21875 -0.3125 C 4.070312 -0.164062 3.890625 -0.0625 3.671875 0 C 3.453125 0.0703125 3.210938 0.109375 2.953125 0.109375 C 1.835938 0.109375 1.28125 -0.453125 1.28125 -1.578125 L 1.28125 -5.125 L 0.265625 -5.125 L 0.265625 -5.828125 L 1.28125 -5.828125 L 1.28125 -7.0625 L 2.140625 -7.203125 L 2.140625 -5.828125 L 4.015625 -5.828125 L 4.015625 -5.125 L 2.140625 -5.125 L 2.140625 -1.65625 C 2.140625 -0.988281 2.429688 -0.65625 3.015625 -0.65625 C 3.328125 -0.65625 3.597656 -0.742188 3.828125 -0.921875 Z M 3.9375 -0.921875 "/></g></g></g><g fill="#ffffff" fill-opacity="1"><g transform="translate(313.347782, 91.781296)"><g><path d="M 3.375 0.109375 C 2.882812 0.109375 2.445312 0.046875 2.0625 -0.078125 C 1.675781 -0.210938 1.351562 -0.382812 1.09375 -0.59375 C 0.84375 -0.8125 0.65625 -1.050781 0.53125 -1.3125 L 1.03125 -1.921875 L 1.15625 -1.921875 C 1.632812 -1.109375 2.375 -0.703125 3.375 -0.703125 C 3.957031 -0.703125 4.390625 -0.820312 4.671875 -1.0625 C 4.953125 -1.3125 5.09375 -1.648438 5.09375 -2.078125 C 5.09375 -2.335938 5.046875 -2.554688 4.953125 -2.734375 C 4.859375 -2.910156 4.703125 -3.0625 4.484375 -3.1875 C 4.273438 -3.3125 3.984375 -3.414062 3.609375 -3.5 L 2.71875 -3.734375 C 2.039062 -3.890625 1.539062 -4.144531 1.21875 -4.5 C 0.90625 -4.851562 0.75 -5.300781 0.75 -5.84375 C 0.75 -6.226562 0.847656 -6.570312 1.046875 -6.875 C 1.242188 -7.175781 1.53125 -7.410156 1.90625 -7.578125 C 2.289062 -7.742188 2.742188 -7.828125 3.265625 -7.828125 C 3.847656 -7.828125 4.335938 -7.742188 4.734375 -7.578125 C 5.140625 -7.421875 5.460938 -7.175781 5.703125 -6.84375 L 5.265625 -6.25 L 5.125 -6.25 C 4.90625 -6.519531 4.644531 -6.71875 4.34375 -6.84375 C 4.039062 -6.96875 3.679688 -7.03125 3.265625 -7.03125 C 2.734375 -7.03125 2.332031 -6.925781 2.0625 -6.71875 C 1.789062 -6.519531 1.65625 -6.234375 1.65625 -5.859375 C 1.65625 -5.515625 1.753906 -5.238281 1.953125 -5.03125 C 2.148438 -4.820312 2.488281 -4.664062 2.96875 -4.5625 L 3.890625 -4.328125 C 4.640625 -4.160156 5.179688 -3.894531 5.515625 -3.53125 C 5.859375 -3.164062 6.03125 -2.695312 6.03125 -2.125 C 6.03125 -1.6875 5.929688 -1.300781 5.734375 -0.96875 C 5.535156 -0.632812 5.238281 -0.367188 4.84375 -0.171875 C 4.445312 0.015625 3.957031 0.109375 3.375 0.109375 Z M 3.375 0.109375 "/></g></g></g><g fill="#ffffff" fill-opacity="1"><g transform="translate(319.95839, 91.781296)"><g><path d="M 5.546875 -2.71875 L 1.546875 -2.71875 C 1.566406 -2.007812 1.734375 -1.488281 2.046875 -1.15625 C 2.367188 -0.820312 2.804688 -0.65625 3.359375 -0.65625 C 3.765625 -0.65625 4.09375 -0.726562 4.34375 -0.875 C 4.601562 -1.03125 4.804688 -1.265625 4.953125 -1.578125 L 5.0625 -1.578125 L 5.625 -1.25 C 5.457031 -0.820312 5.1875 -0.488281 4.8125 -0.25 C 4.4375 -0.0078125 3.953125 0.109375 3.359375 0.109375 C 2.785156 0.109375 2.296875 0 1.890625 -0.21875 C 1.492188 -0.4375 1.1875 -0.769531 0.96875 -1.21875 C 0.75 -1.675781 0.640625 -2.238281 0.640625 -2.90625 C 0.640625 -3.570312 0.753906 -4.128906 0.984375 -4.578125 C 1.210938 -5.035156 1.523438 -5.375 1.921875 -5.59375 C 2.328125 -5.820312 2.785156 -5.9375 3.296875 -5.9375 C 4.046875 -5.9375 4.628906 -5.722656 5.046875 -5.296875 C 5.460938 -4.878906 5.675781 -4.257812 5.6875 -3.4375 C 5.6875 -3.113281 5.675781 -2.894531 5.65625 -2.78125 Z M 4.828125 -3.4375 C 4.816406 -4.050781 4.679688 -4.5 4.421875 -4.78125 C 4.160156 -5.0625 3.785156 -5.203125 3.296875 -5.203125 C 2.785156 -5.203125 2.382812 -5.0625 2.09375 -4.78125 C 1.800781 -4.5 1.625 -4.050781 1.5625 -3.4375 Z M 4.828125 -3.4375 "/></g></g></g><g fill="#ffffff" fill-opacity="1"><g transform="translate(326.162759, 91.781296)"><g><path d="M 1.015625 0 L 1.015625 -5.828125 L 1.828125 -5.828125 L 1.828125 -4.90625 L 1.9375 -4.890625 C 2.132812 -5.222656 2.382812 -5.476562 2.6875 -5.65625 C 2.988281 -5.84375 3.351562 -5.9375 3.78125 -5.9375 C 4.488281 -5.9375 5 -5.753906 5.3125 -5.390625 C 5.625 -5.035156 5.78125 -4.488281 5.78125 -3.75 L 5.78125 0 L 4.921875 0 L 4.921875 -3.734375 C 4.921875 -4.078125 4.875 -4.351562 4.78125 -4.5625 C 4.695312 -4.78125 4.5625 -4.9375 4.375 -5.03125 C 4.1875 -5.132812 3.9375 -5.1875 3.625 -5.1875 C 3.101562 -5.1875 2.679688 -5.007812 2.359375 -4.65625 C 2.035156 -4.3125 1.875 -3.753906 1.875 -2.984375 L 1.875 0 Z M 1.015625 0 "/></g></g></g><g fill="#ffffff" fill-opacity="1"><g transform="translate(332.863056, 91.781296)"><g><path d="M 3.9375 -0.921875 L 4.21875 -0.3125 C 4.070312 -0.164062 3.890625 -0.0625 3.671875 0 C 3.453125 0.0703125 3.210938 0.109375 2.953125 0.109375 C 1.835938 0.109375 1.28125 -0.453125 1.28125 -1.578125 L 1.28125 -5.125 L 0.265625 -5.125 L 0.265625 -5.828125 L 1.28125 -5.828125 L 1.28125 -7.0625 L 2.140625 -7.203125 L 2.140625 -5.828125 L 4.015625 -5.828125 L 4.015625 -5.125 L 2.140625 -5.125 L 2.140625 -1.65625 C 2.140625 -0.988281 2.429688 -0.65625 3.015625 -0.65625 C 3.328125 -0.65625 3.597656 -0.742188 3.828125 -0.921875 Z M 3.9375 -0.921875 "/></g></g></g><g fill="#ffffff" fill-opacity="1"><g transform="translate(337.294748, 91.781296)"><g><path d="M 6.03125 -7.71875 L 6.03125 -6.953125 L 3.609375 -6.953125 L 3.609375 0 L 2.703125 0 L 2.703125 -6.953125 L 0.28125 -6.953125 L 0.28125 -7.71875 Z M 6.03125 -7.71875 "/></g></g></g><g fill="#ffffff" fill-opacity="1"><g transform="translate(343.594083, 91.781296)"><g><path d="M 3.34375 0.109375 C 2.789062 0.109375 2.3125 -0.00390625 1.90625 -0.234375 C 1.5 -0.472656 1.1875 -0.816406 0.96875 -1.265625 C 0.75 -1.710938 0.640625 -2.257812 0.640625 -2.90625 C 0.640625 -3.550781 0.75 -4.097656 0.96875 -4.546875 C 1.1875 -5.003906 1.5 -5.347656 1.90625 -5.578125 C 2.3125 -5.816406 2.789062 -5.9375 3.34375 -5.9375 C 3.894531 -5.9375 4.375 -5.816406 4.78125 -5.578125 C 5.1875 -5.347656 5.5 -5.003906 5.71875 -4.546875 C 5.9375 -4.097656 6.046875 -3.550781 6.046875 -2.90625 C 6.046875 -2.257812 5.9375 -1.710938 5.71875 -1.265625 C 5.5 -0.816406 5.1875 -0.472656 4.78125 -0.234375 C 4.375 -0.00390625 3.894531 0.109375 3.34375 0.109375 Z M 3.34375 -0.65625 C 3.925781 -0.65625 4.367188 -0.835938 4.671875 -1.203125 C 4.984375 -1.578125 5.140625 -2.144531 5.140625 -2.90625 C 5.140625 -3.675781 4.984375 -4.242188 4.671875 -4.609375 C 4.367188 -4.972656 3.925781 -5.15625 3.34375 -5.15625 C 2.757812 -5.15625 2.3125 -4.972656 2 -4.609375 C 1.695312 -4.242188 1.546875 -3.675781 1.546875 -2.90625 C 1.546875 -2.144531 1.695312 -1.578125 2 -1.203125 C 2.3125 -0.835938 2.757812 -0.65625 3.34375 -0.65625 Z M 3.34375 -0.65625 "/></g></g></g><g fill="#ffffff" fill-opacity="1"><g transform="translate(350.273276, 91.781296)"><g><path d="M 3.921875 -7.71875 C 4.453125 -7.71875 4.90625 -7.625 5.28125 -7.4375 C 5.664062 -7.25 5.957031 -6.976562 6.15625 -6.625 C 6.363281 -6.269531 6.46875 -5.851562 6.46875 -5.375 C 6.46875 -4.894531 6.363281 -4.476562 6.15625 -4.125 C 5.957031 -3.769531 5.664062 -3.492188 5.28125 -3.296875 C 4.90625 -3.109375 4.453125 -3.015625 3.921875 -3.015625 L 2.078125 -3.015625 L 2.078125 0 L 1.171875 0 L 1.171875 -7.71875 Z M 3.90625 -3.796875 C 4.976562 -3.796875 5.515625 -4.320312 5.515625 -5.375 C 5.515625 -6.425781 4.976562 -6.953125 3.90625 -6.953125 L 2.078125 -6.953125 L 2.078125 -3.796875 Z M 3.90625 -3.796875 "/></g></g></g><g fill="#ffffff" fill-opacity="1"><g transform="translate(357.30595, 91.781296)"><g><path d="M 1.015625 0 L 1.015625 -5.828125 L 1.828125 -5.828125 L 1.828125 -4.90625 L 1.9375 -4.890625 C 2.207031 -5.546875 2.71875 -5.875 3.46875 -5.875 C 3.875 -5.875 4.171875 -5.800781 4.359375 -5.65625 L 4.140625 -4.9375 L 4.03125 -4.90625 C 3.820312 -5.019531 3.585938 -5.078125 3.328125 -5.078125 C 2.859375 -5.078125 2.5 -4.898438 2.25 -4.546875 C 2 -4.203125 1.875 -3.640625 1.875 -2.859375 L 1.875 0 Z M 1.015625 0 "/></g></g></g><g fill="#ffffff" fill-opacity="1"><g transform="translate(361.800952, 91.781296)"><g><path d="M 5.546875 -2.71875 L 1.546875 -2.71875 C 1.566406 -2.007812 1.734375 -1.488281 2.046875 -1.15625 C 2.367188 -0.820312 2.804688 -0.65625 3.359375 -0.65625 C 3.765625 -0.65625 4.09375 -0.726562 4.34375 -0.875 C 4.601562 -1.03125 4.804688 -1.265625 4.953125 -1.578125 L 5.0625 -1.578125 L 5.625 -1.25 C 5.457031 -0.820312 5.1875 -0.488281 4.8125 -0.25 C 4.4375 -0.0078125 3.953125 0.109375 3.359375 0.109375 C 2.785156 0.109375 2.296875 0 1.890625 -0.21875 C 1.492188 -0.4375 1.1875 -0.769531 0.96875 -1.21875 C 0.75 -1.675781 0.640625 -2.238281 0.640625 -2.90625 C 0.640625 -3.570312 0.753906 -4.128906 0.984375 -4.578125 C 1.210938 -5.035156 1.523438 -5.375 1.921875 -5.59375 C 2.328125 -5.820312 2.785156 -5.9375 3.296875 -5.9375 C 4.046875 -5.9375 4.628906 -5.722656 5.046875 -5.296875 C 5.460938 -4.878906 5.675781 -4.257812 5.6875 -3.4375 C 5.6875 -3.113281 5.675781 -2.894531 5.65625 -2.78125 Z M 4.828125 -3.4375 C 4.816406 -4.050781 4.679688 -4.5 4.421875 -4.78125 C 4.160156 -5.0625 3.785156 -5.203125 3.296875 -5.203125 C 2.785156 -5.203125 2.382812 -5.0625 2.09375 -4.78125 C 1.800781 -4.5 1.625 -4.050781 1.5625 -3.4375 Z M 4.828125 -3.4375 "/></g></g></g><g fill="#ffffff" fill-opacity="1"><g transform="translate(368.005322, 91.781296)"><g><path d="M 3.6875 0 L 2.5 0 L 0.28125 -5.828125 L 1.21875 -5.828125 L 3.046875 -0.984375 L 3.171875 -0.984375 L 4.984375 -5.828125 L 5.890625 -5.828125 Z M 3.6875 0 "/></g></g></g><g fill="#ffffff" fill-opacity="1"><g transform="translate(243.002007, 91.781296)"><g><path d="M 3.375 0.109375 C 2.882812 0.109375 2.445312 0.046875 2.0625 -0.078125 C 1.675781 -0.210938 1.351562 -0.382812 1.09375 -0.59375 C 0.84375 -0.8125 0.65625 -1.050781 0.53125 -1.3125 L 1.03125 -1.921875 L 1.15625 -1.921875 C 1.632812 -1.109375 2.375 -0.703125 3.375 -0.703125 C 3.957031 -0.703125 4.390625 -0.820312 4.671875 -1.0625 C 4.953125 -1.3125 5.09375 -1.648438 5.09375 -2.078125 C 5.09375 -2.335938 5.046875 -2.554688 4.953125 -2.734375 C 4.859375 -2.910156 4.703125 -3.0625 4.484375 -3.1875 C 4.273438 -3.3125 3.984375 -3.414062 3.609375 -3.5 L 2.71875 -3.734375 C 2.039062 -3.890625 1.539062 -4.144531 1.21875 -4.5 C 0.90625 -4.851562 0.75 -5.300781 0.75 -5.84375 C 0.75 -6.226562 0.847656 -6.570312 1.046875 -6.875 C 1.242188 -7.175781 1.53125 -7.410156 1.90625 -7.578125 C 2.289062 -7.742188 2.742188 -7.828125 3.265625 -7.828125 C 3.847656 -7.828125 4.335938 -7.742188 4.734375 -7.578125 C 5.140625 -7.421875 5.460938 -7.175781 5.703125 -6.84375 L 5.265625 -6.25 L 5.125 -6.25 C 4.90625 -6.519531 4.644531 -6.71875 4.34375 -6.84375 C 4.039062 -6.96875 3.679688 -7.03125 3.265625 -7.03125 C 2.734375 -7.03125 2.332031 -6.925781 2.0625 -6.71875 C 1.789062 -6.519531 1.65625 -6.234375 1.65625 -5.859375 C 1.65625 -5.515625 1.753906 -5.238281 1.953125 -5.03125 C 2.148438 -4.820312 2.488281 -4.664062 2.96875 -4.5625 L 3.890625 -4.328125 C 4.640625 -4.160156 5.179688 -3.894531 5.515625 -3.53125 C 5.859375 -3.164062 6.03125 -2.695312 6.03125 -2.125 C 6.03125 -1.6875 5.929688 -1.300781 5.734375 -0.96875 C 5.535156 -0.632812 5.238281 -0.367188 4.84375 -0.171875 C 4.445312 0.015625 3.957031 0.109375 3.375 0.109375 Z M 3.375 0.109375 "/></g></g></g><g fill="#ffffff" fill-opacity="1"><g transform="translate(249.612614, 91.781296)"><g><path d="M 5.546875 -2.71875 L 1.546875 -2.71875 C 1.566406 -2.007812 1.734375 -1.488281 2.046875 -1.15625 C 2.367188 -0.820312 2.804688 -0.65625 3.359375 -0.65625 C 3.765625 -0.65625 4.09375 -0.726562 4.34375 -0.875 C 4.601562 -1.03125 4.804688 -1.265625 4.953125 -1.578125 L 5.0625 -1.578125 L 5.625 -1.25 C 5.457031 -0.820312 5.1875 -0.488281 4.8125 -0.25 C 4.4375 -0.0078125 3.953125 0.109375 3.359375 0.109375 C 2.785156 0.109375 2.296875 0 1.890625 -0.21875 C 1.492188 -0.4375 1.1875 -0.769531 0.96875 -1.21875 C 0.75 -1.675781 0.640625 -2.238281 0.640625 -2.90625 C 0.640625 -3.570312 0.753906 -4.128906 0.984375 -4.578125 C 1.210938 -5.035156 1.523438 -5.375 1.921875 -5.59375 C 2.328125 -5.820312 2.785156 -5.9375 3.296875 -5.9375 C 4.046875 -5.9375 4.628906 -5.722656 5.046875 -5.296875 C 5.460938 -4.878906 5.675781 -4.257812 5.6875 -3.4375 C 5.6875 -3.113281 5.675781 -2.894531 5.65625 -2.78125 Z M 4.828125 -3.4375 C 4.816406 -4.050781 4.679688 -4.5 4.421875 -4.78125 C 4.160156 -5.0625 3.785156 -5.203125 3.296875 -5.203125 C 2.785156 -5.203125 2.382812 -5.0625 2.09375 -4.78125 C 1.800781 -4.5 1.625 -4.050781 1.5625 -3.4375 Z M 4.828125 -3.4375 "/></g></g></g><g fill="#ffffff" fill-opacity="1"><g transform="translate(255.816984, 91.781296)"><g><path d="M 1.015625 0 L 1.015625 -5.828125 L 1.828125 -5.828125 L 1.828125 -4.90625 L 1.9375 -4.890625 C 2.132812 -5.222656 2.382812 -5.476562 2.6875 -5.65625 C 2.988281 -5.84375 3.351562 -5.9375 3.78125 -5.9375 C 4.488281 -5.9375 5 -5.753906 5.3125 -5.390625 C 5.625 -5.035156 5.78125 -4.488281 5.78125 -3.75 L 5.78125 0 L 4.921875 0 L 4.921875 -3.734375 C 4.921875 -4.078125 4.875 -4.351562 4.78125 -4.5625 C 4.695312 -4.78125 4.5625 -4.9375 4.375 -5.03125 C 4.1875 -5.132812 3.9375 -5.1875 3.625 -5.1875 C 3.101562 -5.1875 2.679688 -5.007812 2.359375 -4.65625 C 2.035156 -4.3125 1.875 -3.753906 1.875 -2.984375 L 1.875 0 Z M 1.015625 0 "/></g></g></g><g fill="#ffffff" fill-opacity="1"><g transform="translate(262.517281, 91.781296)"><g><path d="M 3.015625 0.109375 C 2.546875 0.109375 2.132812 0 1.78125 -0.21875 C 1.425781 -0.445312 1.144531 -0.785156 0.9375 -1.234375 C 0.738281 -1.679688 0.640625 -2.238281 0.640625 -2.90625 C 0.640625 -3.570312 0.742188 -4.128906 0.953125 -4.578125 C 1.160156 -5.035156 1.453125 -5.375 1.828125 -5.59375 C 2.203125 -5.820312 2.632812 -5.9375 3.125 -5.9375 C 3.507812 -5.9375 3.851562 -5.863281 4.15625 -5.71875 C 4.46875 -5.570312 4.738281 -5.332031 4.96875 -5 L 5.078125 -5.015625 L 5.078125 -8.15625 L 5.9375 -8.15625 L 5.9375 0 L 5.078125 0 L 5.078125 -0.84375 L 4.96875 -0.875 C 4.769531 -0.582031 4.507812 -0.34375 4.1875 -0.15625 C 3.863281 0.0195312 3.472656 0.109375 3.015625 0.109375 Z M 3.296875 -0.65625 C 3.835938 -0.65625 4.269531 -0.84375 4.59375 -1.21875 C 4.914062 -1.59375 5.078125 -2.15625 5.078125 -2.90625 C 5.078125 -3.664062 4.914062 -4.226562 4.59375 -4.59375 C 4.269531 -4.96875 3.835938 -5.15625 3.296875 -5.15625 C 2.734375 -5.15625 2.300781 -4.972656 2 -4.609375 C 1.695312 -4.253906 1.546875 -3.6875 1.546875 -2.90625 C 1.546875 -1.40625 2.128906 -0.65625 3.296875 -0.65625 Z M 3.296875 -0.65625 "/></g></g></g><g fill="#ffffff" fill-opacity="1"><g transform="translate(269.465541, 91.781296)"><g><path d="M 3.875 0.109375 C 3.4375 0.109375 3.054688 0.0234375 2.734375 -0.140625 C 2.421875 -0.304688 2.171875 -0.523438 1.984375 -0.796875 L 1.875 -0.78125 L 1.875 0 L 1.015625 0 L 1.015625 -8.15625 L 1.875 -8.15625 L 1.875 -4.953125 L 1.984375 -4.9375 C 2.429688 -5.601562 3.078125 -5.9375 3.921875 -5.9375 C 4.398438 -5.9375 4.816406 -5.820312 5.171875 -5.59375 C 5.535156 -5.375 5.816406 -5.035156 6.015625 -4.578125 C 6.210938 -4.128906 6.3125 -3.570312 6.3125 -2.90625 C 6.3125 -2.25 6.207031 -1.691406 6 -1.234375 C 5.789062 -0.785156 5.5 -0.445312 5.125 -0.21875 C 4.757812 0 4.34375 0.109375 3.875 0.109375 Z M 3.65625 -0.65625 C 4.820312 -0.65625 5.40625 -1.40625 5.40625 -2.90625 C 5.40625 -3.6875 5.253906 -4.253906 4.953125 -4.609375 C 4.648438 -4.972656 4.21875 -5.15625 3.65625 -5.15625 C 3.113281 -5.15625 2.679688 -4.96875 2.359375 -4.59375 C 2.035156 -4.226562 1.875 -3.664062 1.875 -2.90625 C 1.875 -2.15625 2.035156 -1.59375 2.359375 -1.21875 C 2.679688 -0.84375 3.113281 -0.65625 3.65625 -0.65625 Z M 3.65625 -0.65625 "/></g></g></g><g fill="#ffffff" fill-opacity="1"><g transform="translate(276.408526, 91.781296)"><g><path d="M 2.40625 0.109375 C 1.832031 0.109375 1.382812 -0.0351562 1.0625 -0.328125 C 0.738281 -0.628906 0.578125 -1.0625 0.578125 -1.625 C 0.578125 -1.96875 0.644531 -2.253906 0.78125 -2.484375 C 0.925781 -2.722656 1.148438 -2.914062 1.453125 -3.0625 C 1.753906 -3.21875 2.144531 -3.335938 2.625 -3.421875 C 3.039062 -3.492188 3.359375 -3.570312 3.578125 -3.65625 C 3.804688 -3.75 3.957031 -3.847656 4.03125 -3.953125 C 4.101562 -4.066406 4.140625 -4.203125 4.140625 -4.359375 C 4.140625 -4.628906 4.046875 -4.832031 3.859375 -4.96875 C 3.679688 -5.113281 3.394531 -5.1875 3 -5.1875 C 2.625 -5.1875 2.300781 -5.113281 2.03125 -4.96875 C 1.757812 -4.820312 1.507812 -4.601562 1.28125 -4.3125 L 1.1875 -4.3125 L 0.765625 -4.90625 C 1.003906 -5.21875 1.3125 -5.46875 1.6875 -5.65625 C 2.070312 -5.84375 2.507812 -5.9375 3 -5.9375 C 3.6875 -5.9375 4.191406 -5.785156 4.515625 -5.484375 C 4.835938 -5.179688 5 -4.765625 5 -4.234375 L 5 -1.140625 C 5 -0.816406 5.140625 -0.65625 5.421875 -0.65625 C 5.503906 -0.65625 5.59375 -0.671875 5.6875 -0.703125 L 5.75 -0.6875 L 5.859375 -0.09375 C 5.796875 -0.0507812 5.710938 -0.0195312 5.609375 0 C 5.503906 0.03125 5.394531 0.046875 5.28125 0.046875 C 4.957031 0.046875 4.710938 -0.0195312 4.546875 -0.15625 C 4.390625 -0.300781 4.289062 -0.515625 4.25 -0.796875 L 4.140625 -0.796875 C 3.972656 -0.492188 3.75 -0.265625 3.46875 -0.109375 C 3.1875 0.0351562 2.832031 0.109375 2.40625 0.109375 Z M 2.59375 -0.578125 C 2.914062 -0.578125 3.195312 -0.648438 3.4375 -0.796875 C 3.675781 -0.953125 3.859375 -1.164062 3.984375 -1.4375 C 4.109375 -1.707031 4.171875 -2.019531 4.171875 -2.375 L 4.171875 -3.109375 L 4.078125 -3.125 C 3.941406 -3.039062 3.78125 -2.96875 3.59375 -2.90625 C 3.40625 -2.84375 3.144531 -2.785156 2.8125 -2.734375 C 2.476562 -2.691406 2.207031 -2.617188 2 -2.515625 C 1.800781 -2.421875 1.660156 -2.300781 1.578125 -2.15625 C 1.492188 -2.007812 1.453125 -1.832031 1.453125 -1.625 C 1.453125 -1.28125 1.550781 -1.019531 1.75 -0.84375 C 1.957031 -0.664062 2.238281 -0.578125 2.59375 -0.578125 Z M 2.59375 -0.578125 "/></g></g></g><g fill="#ffffff" fill-opacity="1"><g transform="translate(282.428242, 91.781296)"><g><path d="M 3.34375 0.109375 C 2.832031 0.109375 2.367188 -0.00390625 1.953125 -0.234375 C 1.546875 -0.472656 1.222656 -0.816406 0.984375 -1.265625 C 0.753906 -1.722656 0.640625 -2.269531 0.640625 -2.90625 C 0.640625 -3.539062 0.753906 -4.085938 0.984375 -4.546875 C 1.222656 -5.003906 1.546875 -5.347656 1.953125 -5.578125 C 2.367188 -5.816406 2.832031 -5.9375 3.34375 -5.9375 C 3.957031 -5.9375 4.445312 -5.816406 4.8125 -5.578125 C 5.175781 -5.347656 5.441406 -5.039062 5.609375 -4.65625 L 5.015625 -4.234375 L 4.90625 -4.234375 C 4.75 -4.554688 4.546875 -4.789062 4.296875 -4.9375 C 4.046875 -5.082031 3.726562 -5.15625 3.34375 -5.15625 C 2.976562 -5.15625 2.660156 -5.070312 2.390625 -4.90625 C 2.117188 -4.738281 1.910156 -4.484375 1.765625 -4.140625 C 1.617188 -3.804688 1.546875 -3.394531 1.546875 -2.90625 C 1.546875 -2.425781 1.617188 -2.015625 1.765625 -1.671875 C 1.921875 -1.335938 2.128906 -1.082031 2.390625 -0.90625 C 2.660156 -0.738281 2.976562 -0.65625 3.34375 -0.65625 C 3.75 -0.65625 4.082031 -0.742188 4.34375 -0.921875 C 4.613281 -1.109375 4.820312 -1.398438 4.96875 -1.796875 L 5.078125 -1.796875 L 5.65625 -1.46875 C 5.5 -0.976562 5.222656 -0.59375 4.828125 -0.3125 C 4.441406 -0.03125 3.945312 0.109375 3.34375 0.109375 Z M 3.34375 0.109375 "/></g></g></g><g fill="#ffffff" fill-opacity="1"><g transform="translate(288.426854, 91.781296)"><g><path d="M 1.015625 0 L 1.015625 -8.15625 L 1.875 -8.15625 L 1.875 -3.390625 L 2.015625 -3.390625 L 4.1875 -5.828125 L 5.078125 -5.828125 L 5.078125 -5.703125 L 2.78125 -3.09375 L 5.3125 -0.125 L 5.3125 0 L 4.34375 0 L 2.015625 -2.6875 L 1.875 -2.6875 L 1.875 0 Z M 1.015625 0 "/></g></g></g><g fill="#000000" fill-opacity="1"><g transform="translate(132.927236, 17.428579)"><g><path d="M 3.921875 -7.71875 C 4.453125 -7.71875 4.90625 -7.625 5.28125 -7.4375 C 5.664062 -7.25 5.957031 -6.976562 6.15625 -6.625 C 6.363281 -6.269531 6.46875 -5.851562 6.46875 -5.375 C 6.46875 -4.894531 6.363281 -4.476562 6.15625 -4.125 C 5.957031 -3.769531 5.664062 -3.492188 5.28125 -3.296875 C 4.90625 -3.109375 4.453125 -3.015625 3.921875 -3.015625 L 2.078125 -3.015625 L 2.078125 0 L 1.171875 0 L 1.171875 -7.71875 Z M 3.90625 -3.796875 C 4.976562 -3.796875 5.515625 -4.320312 5.515625 -5.375 C 5.515625 -6.425781 4.976562 -6.953125 3.90625 -6.953125 L 2.078125 -6.953125 L 2.078125 -3.796875 Z M 3.90625 -3.796875 "/></g></g></g><g fill="#000000" fill-opacity="1"><g transform="translate(139.95991, 17.428579)"><g><path d="M 2.3125 0.109375 C 1.90625 0.109375 1.582031 -0.00390625 1.34375 -0.234375 C 1.113281 -0.472656 1 -0.820312 1 -1.28125 L 1 -8.15625 L 1.859375 -8.15625 L 1.859375 -1.34375 C 1.859375 -1.101562 1.90625 -0.925781 2 -0.8125 C 2.09375 -0.707031 2.234375 -0.65625 2.421875 -0.65625 C 2.546875 -0.65625 2.671875 -0.675781 2.796875 -0.71875 L 2.859375 -0.703125 L 2.96875 -0.015625 C 2.90625 0.0234375 2.8125 0.0546875 2.6875 0.078125 C 2.570312 0.0976562 2.445312 0.109375 2.3125 0.109375 Z M 2.3125 0.109375 "/></g></g></g><g fill="#000000" fill-opacity="1"><g transform="translate(143.125405, 17.428579)"><g><path d="M 5.546875 -2.71875 L 1.546875 -2.71875 C 1.566406 -2.007812 1.734375 -1.488281 2.046875 -1.15625 C 2.367188 -0.820312 2.804688 -0.65625 3.359375 -0.65625 C 3.765625 -0.65625 4.09375 -0.726562 4.34375 -0.875 C 4.601562 -1.03125 4.804688 -1.265625 4.953125 -1.578125 L 5.0625 -1.578125 L 5.625 -1.25 C 5.457031 -0.820312 5.1875 -0.488281 4.8125 -0.25 C 4.4375 -0.0078125 3.953125 0.109375 3.359375 0.109375 C 2.785156 0.109375 2.296875 0 1.890625 -0.21875 C 1.492188 -0.4375 1.1875 -0.769531 0.96875 -1.21875 C 0.75 -1.675781 0.640625 -2.238281 0.640625 -2.90625 C 0.640625 -3.570312 0.753906 -4.128906 0.984375 -4.578125 C 1.210938 -5.035156 1.523438 -5.375 1.921875 -5.59375 C 2.328125 -5.820312 2.785156 -5.9375 3.296875 -5.9375 C 4.046875 -5.9375 4.628906 -5.722656 5.046875 -5.296875 C 5.460938 -4.878906 5.675781 -4.257812 5.6875 -3.4375 C 5.6875 -3.113281 5.675781 -2.894531 5.65625 -2.78125 Z M 4.828125 -3.4375 C 4.816406 -4.050781 4.679688 -4.5 4.421875 -4.78125 C 4.160156 -5.0625 3.785156 -5.203125 3.296875 -5.203125 C 2.785156 -5.203125 2.382812 -5.0625 2.09375 -4.78125 C 1.800781 -4.5 1.625 -4.050781 1.5625 -3.4375 Z M 4.828125 -3.4375 "/></g></g></g><g fill="#000000" fill-opacity="1"><g transform="translate(149.329774, 17.428579)"><g><path d="M 2.40625 0.109375 C 1.832031 0.109375 1.382812 -0.0351562 1.0625 -0.328125 C 0.738281 -0.628906 0.578125 -1.0625 0.578125 -1.625 C 0.578125 -1.96875 0.644531 -2.253906 0.78125 -2.484375 C 0.925781 -2.722656 1.148438 -2.914062 1.453125 -3.0625 C 1.753906 -3.21875 2.144531 -3.335938 2.625 -3.421875 C 3.039062 -3.492188 3.359375 -3.570312 3.578125 -3.65625 C 3.804688 -3.75 3.957031 -3.847656 4.03125 -3.953125 C 4.101562 -4.066406 4.140625 -4.203125 4.140625 -4.359375 C 4.140625 -4.628906 4.046875 -4.832031 3.859375 -4.96875 C 3.679688 -5.113281 3.394531 -5.1875 3 -5.1875 C 2.625 -5.1875 2.300781 -5.113281 2.03125 -4.96875 C 1.757812 -4.820312 1.507812 -4.601562 1.28125 -4.3125 L 1.1875 -4.3125 L 0.765625 -4.90625 C 1.003906 -5.21875 1.3125 -5.46875 1.6875 -5.65625 C 2.070312 -5.84375 2.507812 -5.9375 3 -5.9375 C 3.6875 -5.9375 4.191406 -5.785156 4.515625 -5.484375 C 4.835938 -5.179688 5 -4.765625 5 -4.234375 L 5 -1.140625 C 5 -0.816406 5.140625 -0.65625 5.421875 -0.65625 C 5.503906 -0.65625 5.59375 -0.671875 5.6875 -0.703125 L 5.75 -0.6875 L 5.859375 -0.09375 C 5.796875 -0.0507812 5.710938 -0.0195312 5.609375 0 C 5.503906 0.03125 5.394531 0.046875 5.28125 0.046875 C 4.957031 0.046875 4.710938 -0.0195312 4.546875 -0.15625 C 4.390625 -0.300781 4.289062 -0.515625 4.25 -0.796875 L 4.140625 -0.796875 C 3.972656 -0.492188 3.75 -0.265625 3.46875 -0.109375 C 3.1875 0.0351562 2.832031 0.109375 2.40625 0.109375 Z M 2.59375 -0.578125 C 2.914062 -0.578125 3.195312 -0.648438 3.4375 -0.796875 C 3.675781 -0.953125 3.859375 -1.164062 3.984375 -1.4375 C 4.109375 -1.707031 4.171875 -2.019531 4.171875 -2.375 L 4.171875 -3.109375 L 4.078125 -3.125 C 3.941406 -3.039062 3.78125 -2.96875 3.59375 -2.90625 C 3.40625 -2.84375 3.144531 -2.785156 2.8125 -2.734375 C 2.476562 -2.691406 2.207031 -2.617188 2 -2.515625 C 1.800781 -2.421875 1.660156 -2.300781 1.578125 -2.15625 C 1.492188 -2.007812 1.453125 -1.832031 1.453125 -1.625 C 1.453125 -1.28125 1.550781 -1.019531 1.75 -0.84375 C 1.957031 -0.664062 2.238281 -0.578125 2.59375 -0.578125 Z M 2.59375 -0.578125 "/></g></g></g><g fill="#000000" fill-opacity="1"><g transform="translate(155.34949, 17.428579)"><g><path d="M 2.65625 0.109375 C 2.289062 0.109375 1.953125 0.0625 1.640625 -0.03125 C 1.328125 -0.125 1.0625 -0.253906 0.84375 -0.421875 C 0.632812 -0.597656 0.484375 -0.789062 0.390625 -1 L 0.90625 -1.53125 L 1.015625 -1.53125 C 1.203125 -1.238281 1.425781 -1.019531 1.6875 -0.875 C 1.957031 -0.726562 2.28125 -0.65625 2.65625 -0.65625 C 3.082031 -0.65625 3.40625 -0.738281 3.625 -0.90625 C 3.851562 -1.070312 3.96875 -1.304688 3.96875 -1.609375 C 3.96875 -1.835938 3.898438 -2.023438 3.765625 -2.171875 C 3.628906 -2.328125 3.410156 -2.441406 3.109375 -2.515625 L 2.125 -2.75 C 1.601562 -2.882812 1.222656 -3.085938 0.984375 -3.359375 C 0.742188 -3.628906 0.625 -3.96875 0.625 -4.375 C 0.625 -4.695312 0.703125 -4.972656 0.859375 -5.203125 C 1.023438 -5.429688 1.257812 -5.609375 1.5625 -5.734375 C 1.863281 -5.867188 2.222656 -5.9375 2.640625 -5.9375 C 3.179688 -5.9375 3.601562 -5.859375 3.90625 -5.703125 C 4.21875 -5.554688 4.457031 -5.347656 4.625 -5.078125 L 4.140625 -4.609375 L 4.03125 -4.609375 C 3.851562 -4.828125 3.648438 -4.984375 3.421875 -5.078125 C 3.203125 -5.171875 2.941406 -5.21875 2.640625 -5.21875 C 2.253906 -5.21875 1.957031 -5.144531 1.75 -5 C 1.550781 -4.863281 1.453125 -4.664062 1.453125 -4.40625 C 1.453125 -4.175781 1.523438 -3.988281 1.671875 -3.84375 C 1.816406 -3.695312 2.066406 -3.582031 2.421875 -3.5 L 3.390625 -3.265625 C 3.898438 -3.140625 4.265625 -2.9375 4.484375 -2.65625 C 4.710938 -2.382812 4.828125 -2.039062 4.828125 -1.625 C 4.828125 -1.28125 4.742188 -0.976562 4.578125 -0.71875 C 4.421875 -0.457031 4.175781 -0.253906 3.84375 -0.109375 C 3.519531 0.0351562 3.125 0.109375 2.65625 0.109375 Z M 2.65625 0.109375 "/></g></g></g><g fill="#000000" fill-opacity="1"><g transform="translate(160.73083, 17.428579)"><g><path d="M 5.546875 -2.71875 L 1.546875 -2.71875 C 1.566406 -2.007812 1.734375 -1.488281 2.046875 -1.15625 C 2.367188 -0.820312 2.804688 -0.65625 3.359375 -0.65625 C 3.765625 -0.65625 4.09375 -0.726562 4.34375 -0.875 C 4.601562 -1.03125 4.804688 -1.265625 4.953125 -1.578125 L 5.0625 -1.578125 L 5.625 -1.25 C 5.457031 -0.820312 5.1875 -0.488281 4.8125 -0.25 C 4.4375 -0.0078125 3.953125 0.109375 3.359375 0.109375 C 2.785156 0.109375 2.296875 0 1.890625 -0.21875 C 1.492188 -0.4375 1.1875 -0.769531 0.96875 -1.21875 C 0.75 -1.675781 0.640625 -2.238281 0.640625 -2.90625 C 0.640625 -3.570312 0.753906 -4.128906 0.984375 -4.578125 C 1.210938 -5.035156 1.523438 -5.375 1.921875 -5.59375 C 2.328125 -5.820312 2.785156 -5.9375 3.296875 -5.9375 C 4.046875 -5.9375 4.628906 -5.722656 5.046875 -5.296875 C 5.460938 -4.878906 5.675781 -4.257812 5.6875 -3.4375 C 5.6875 -3.113281 5.675781 -2.894531 5.65625 -2.78125 Z M 4.828125 -3.4375 C 4.816406 -4.050781 4.679688 -4.5 4.421875 -4.78125 C 4.160156 -5.0625 3.785156 -5.203125 3.296875 -5.203125 C 2.785156 -5.203125 2.382812 -5.0625 2.09375 -4.78125 C 1.800781 -4.5 1.625 -4.050781 1.5625 -3.4375 Z M 4.828125 -3.4375 "/></g></g></g><g fill="#000000" fill-opacity="1"><g transform="translate(166.9352, 17.428579)"><g/></g></g><g fill="#000000" fill-opacity="1"><g transform="translate(169.583664, 17.428579)"><g><path d="M 2.40625 0.109375 C 1.832031 0.109375 1.382812 -0.0351562 1.0625 -0.328125 C 0.738281 -0.628906 0.578125 -1.0625 0.578125 -1.625 C 0.578125 -1.96875 0.644531 -2.253906 0.78125 -2.484375 C 0.925781 -2.722656 1.148438 -2.914062 1.453125 -3.0625 C 1.753906 -3.21875 2.144531 -3.335938 2.625 -3.421875 C 3.039062 -3.492188 3.359375 -3.570312 3.578125 -3.65625 C 3.804688 -3.75 3.957031 -3.847656 4.03125 -3.953125 C 4.101562 -4.066406 4.140625 -4.203125 4.140625 -4.359375 C 4.140625 -4.628906 4.046875 -4.832031 3.859375 -4.96875 C 3.679688 -5.113281 3.394531 -5.1875 3 -5.1875 C 2.625 -5.1875 2.300781 -5.113281 2.03125 -4.96875 C 1.757812 -4.820312 1.507812 -4.601562 1.28125 -4.3125 L 1.1875 -4.3125 L 0.765625 -4.90625 C 1.003906 -5.21875 1.3125 -5.46875 1.6875 -5.65625 C 2.070312 -5.84375 2.507812 -5.9375 3 -5.9375 C 3.6875 -5.9375 4.191406 -5.785156 4.515625 -5.484375 C 4.835938 -5.179688 5 -4.765625 5 -4.234375 L 5 -1.140625 C 5 -0.816406 5.140625 -0.65625 5.421875 -0.65625 C 5.503906 -0.65625 5.59375 -0.671875 5.6875 -0.703125 L 5.75 -0.6875 L 5.859375 -0.09375 C 5.796875 -0.0507812 5.710938 -0.0195312 5.609375 0 C 5.503906 0.03125 5.394531 0.046875 5.28125 0.046875 C 4.957031 0.046875 4.710938 -0.0195312 4.546875 -0.15625 C 4.390625 -0.300781 4.289062 -0.515625 4.25 -0.796875 L 4.140625 -0.796875 C 3.972656 -0.492188 3.75 -0.265625 3.46875 -0.109375 C 3.1875 0.0351562 2.832031 0.109375 2.40625 0.109375 Z M 2.59375 -0.578125 C 2.914062 -0.578125 3.195312 -0.648438 3.4375 -0.796875 C 3.675781 -0.953125 3.859375 -1.164062 3.984375 -1.4375 C 4.109375 -1.707031 4.171875 -2.019531 4.171875 -2.375 L 4.171875 -3.109375 L 4.078125 -3.125 C 3.941406 -3.039062 3.78125 -2.96875 3.59375 -2.90625 C 3.40625 -2.84375 3.144531 -2.785156 2.8125 -2.734375 C 2.476562 -2.691406 2.207031 -2.617188 2 -2.515625 C 1.800781 -2.421875 1.660156 -2.300781 1.578125 -2.15625 C 1.492188 -2.007812 1.453125 -1.832031 1.453125 -1.625 C 1.453125 -1.28125 1.550781 -1.019531 1.75 -0.84375 C 1.957031 -0.664062 2.238281 -0.578125 2.59375 -0.578125 Z M 2.59375 -0.578125 "/></g></g></g><g fill="#000000" fill-opacity="1"><g transform="translate(175.603379, 17.428579)"><g><path d="M 3.015625 0.109375 C 2.546875 0.109375 2.132812 0 1.78125 -0.21875 C 1.425781 -0.445312 1.144531 -0.785156 0.9375 -1.234375 C 0.738281 -1.679688 0.640625 -2.238281 0.640625 -2.90625 C 0.640625 -3.570312 0.742188 -4.128906 0.953125 -4.578125 C 1.160156 -5.035156 1.453125 -5.375 1.828125 -5.59375 C 2.203125 -5.820312 2.632812 -5.9375 3.125 -5.9375 C 3.507812 -5.9375 3.851562 -5.863281 4.15625 -5.71875 C 4.46875 -5.570312 4.738281 -5.332031 4.96875 -5 L 5.078125 -5.015625 L 5.078125 -8.15625 L 5.9375 -8.15625 L 5.9375 0 L 5.078125 0 L 5.078125 -0.84375 L 4.96875 -0.875 C 4.769531 -0.582031 4.507812 -0.34375 4.1875 -0.15625 C 3.863281 0.0195312 3.472656 0.109375 3.015625 0.109375 Z M 3.296875 -0.65625 C 3.835938 -0.65625 4.269531 -0.84375 4.59375 -1.21875 C 4.914062 -1.59375 5.078125 -2.15625 5.078125 -2.90625 C 5.078125 -3.664062 4.914062 -4.226562 4.59375 -4.59375 C 4.269531 -4.96875 3.835938 -5.15625 3.296875 -5.15625 C 2.734375 -5.15625 2.300781 -4.972656 2 -4.609375 C 1.695312 -4.253906 1.546875 -3.6875 1.546875 -2.90625 C 1.546875 -1.40625 2.128906 -0.65625 3.296875 -0.65625 Z M 3.296875 -0.65625 "/></g></g></g><g fill="#000000" fill-opacity="1"><g transform="translate(182.55164, 17.428579)"><g><path d="M 3.015625 0.109375 C 2.546875 0.109375 2.132812 0 1.78125 -0.21875 C 1.425781 -0.445312 1.144531 -0.785156 0.9375 -1.234375 C 0.738281 -1.679688 0.640625 -2.238281 0.640625 -2.90625 C 0.640625 -3.570312 0.742188 -4.128906 0.953125 -4.578125 C 1.160156 -5.035156 1.453125 -5.375 1.828125 -5.59375 C 2.203125 -5.820312 2.632812 -5.9375 3.125 -5.9375 C 3.507812 -5.9375 3.851562 -5.863281 4.15625 -5.71875 C 4.46875 -5.570312 4.738281 -5.332031 4.96875 -5 L 5.078125 -5.015625 L 5.078125 -8.15625 L 5.9375 -8.15625 L 5.9375 0 L 5.078125 0 L 5.078125 -0.84375 L 4.96875 -0.875 C 4.769531 -0.582031 4.507812 -0.34375 4.1875 -0.15625 C 3.863281 0.0195312 3.472656 0.109375 3.015625 0.109375 Z M 3.296875 -0.65625 C 3.835938 -0.65625 4.269531 -0.84375 4.59375 -1.21875 C 4.914062 -1.59375 5.078125 -2.15625 5.078125 -2.90625 C 5.078125 -3.664062 4.914062 -4.226562 4.59375 -4.59375 C 4.269531 -4.96875 3.835938 -5.15625 3.296875 -5.15625 C 2.734375 -5.15625 2.300781 -4.972656 2 -4.609375 C 1.695312 -4.253906 1.546875 -3.6875 1.546875 -2.90625 C 1.546875 -1.40625 2.128906 -0.65625 3.296875 -0.65625 Z M 3.296875 -0.65625 "/></g></g></g><g fill="#000000" fill-opacity="1"><g transform="translate(189.4999, 17.428579)"><g/></g></g><g fill="#000000" fill-opacity="1"><g transform="translate(192.148364, 17.428579)"><g><path d="M 1.171875 2.46875 C 0.972656 2.46875 0.785156 2.453125 0.609375 2.421875 C 0.441406 2.390625 0.296875 2.34375 0.171875 2.28125 L 0.328125 1.59375 L 0.421875 1.5625 C 0.503906 1.601562 0.609375 1.640625 0.734375 1.671875 C 0.867188 1.703125 1.003906 1.71875 1.140625 1.71875 C 1.367188 1.71875 1.5625 1.6875 1.71875 1.625 C 1.875 1.5625 2.003906 1.457031 2.109375 1.3125 C 2.222656 1.164062 2.328125 0.960938 2.421875 0.703125 L 2.640625 0.140625 L 0.296875 -5.828125 L 1.21875 -5.828125 L 3.0625 -1.078125 L 3.15625 -1.078125 L 4.9375 -5.828125 L 5.8125 -5.828125 L 3.203125 0.90625 C 3.054688 1.28125 2.890625 1.582031 2.703125 1.8125 C 2.523438 2.039062 2.3125 2.207031 2.0625 2.3125 C 1.8125 2.414062 1.515625 2.46875 1.171875 2.46875 Z M 1.171875 2.46875 "/></g></g></g><g fill="#000000" fill-opacity="1"><g transform="translate(198.284148, 17.428579)"><g><path d="M 3.34375 0.109375 C 2.789062 0.109375 2.3125 -0.00390625 1.90625 -0.234375 C 1.5 -0.472656 1.1875 -0.816406 0.96875 -1.265625 C 0.75 -1.710938 0.640625 -2.257812 0.640625 -2.90625 C 0.640625 -3.550781 0.75 -4.097656 0.96875 -4.546875 C 1.1875 -5.003906 1.5 -5.347656 1.90625 -5.578125 C 2.3125 -5.816406 2.789062 -5.9375 3.34375 -5.9375 C 3.894531 -5.9375 4.375 -5.816406 4.78125 -5.578125 C 5.1875 -5.347656 5.5 -5.003906 5.71875 -4.546875 C 5.9375 -4.097656 6.046875 -3.550781 6.046875 -2.90625 C 6.046875 -2.257812 5.9375 -1.710938 5.71875 -1.265625 C 5.5 -0.816406 5.1875 -0.472656 4.78125 -0.234375 C 4.375 -0.00390625 3.894531 0.109375 3.34375 0.109375 Z M 3.34375 -0.65625 C 3.925781 -0.65625 4.367188 -0.835938 4.671875 -1.203125 C 4.984375 -1.578125 5.140625 -2.144531 5.140625 -2.90625 C 5.140625 -3.675781 4.984375 -4.242188 4.671875 -4.609375 C 4.367188 -4.972656 3.925781 -5.15625 3.34375 -5.15625 C 2.757812 -5.15625 2.3125 -4.972656 2 -4.609375 C 1.695312 -4.242188 1.546875 -3.675781 1.546875 -2.90625 C 1.546875 -2.144531 1.695312 -1.578125 2 -1.203125 C 2.3125 -0.835938 2.757812 -0.65625 3.34375 -0.65625 Z M 3.34375 -0.65625 "/></g></g></g><g fill="#000000" fill-opacity="1"><g transform="translate(204.963341, 17.428579)"><g><path d="M 2.875 0.109375 C 2.21875 0.109375 1.726562 -0.0625 1.40625 -0.40625 C 1.082031 -0.757812 0.921875 -1.269531 0.921875 -1.9375 L 0.921875 -5.828125 L 1.78125 -5.828125 L 1.78125 -1.96875 C 1.78125 -1.082031 2.195312 -0.640625 3.03125 -0.640625 C 3.5625 -0.640625 3.976562 -0.8125 4.28125 -1.15625 C 4.582031 -1.5 4.734375 -2.054688 4.734375 -2.828125 L 4.734375 -5.828125 L 5.609375 -5.828125 L 5.609375 0 L 4.78125 0 L 4.78125 -0.90625 L 4.671875 -0.9375 C 4.472656 -0.582031 4.234375 -0.316406 3.953125 -0.140625 C 3.671875 0.0234375 3.3125 0.109375 2.875 0.109375 Z M 2.875 0.109375 "/></g></g></g><g fill="#000000" fill-opacity="1"><g transform="translate(211.573949, 17.428579)"><g><path d="M 1.015625 0 L 1.015625 -5.828125 L 1.828125 -5.828125 L 1.828125 -4.90625 L 1.9375 -4.890625 C 2.207031 -5.546875 2.71875 -5.875 3.46875 -5.875 C 3.875 -5.875 4.171875 -5.800781 4.359375 -5.65625 L 4.140625 -4.9375 L 4.03125 -4.90625 C 3.820312 -5.019531 3.585938 -5.078125 3.328125 -5.078125 C 2.859375 -5.078125 2.5 -4.898438 2.25 -4.546875 C 2 -4.203125 1.875 -3.640625 1.875 -2.859375 L 1.875 0 Z M 1.015625 0 "/></g></g></g><g fill="#000000" fill-opacity="1"><g transform="translate(216.068952, 17.428579)"><g/></g></g><g fill="#000000" fill-opacity="1"><g transform="translate(218.717415, 17.428579)"><g><path d="M 3.34375 0.109375 C 2.832031 0.109375 2.367188 -0.00390625 1.953125 -0.234375 C 1.546875 -0.472656 1.222656 -0.816406 0.984375 -1.265625 C 0.753906 -1.722656 0.640625 -2.269531 0.640625 -2.90625 C 0.640625 -3.539062 0.753906 -4.085938 0.984375 -4.546875 C 1.222656 -5.003906 1.546875 -5.347656 1.953125 -5.578125 C 2.367188 -5.816406 2.832031 -5.9375 3.34375 -5.9375 C 3.957031 -5.9375 4.445312 -5.816406 4.8125 -5.578125 C 5.175781 -5.347656 5.441406 -5.039062 5.609375 -4.65625 L 5.015625 -4.234375 L 4.90625 -4.234375 C 4.75 -4.554688 4.546875 -4.789062 4.296875 -4.9375 C 4.046875 -5.082031 3.726562 -5.15625 3.34375 -5.15625 C 2.976562 -5.15625 2.660156 -5.070312 2.390625 -4.90625 C 2.117188 -4.738281 1.910156 -4.484375 1.765625 -4.140625 C 1.617188 -3.804688 1.546875 -3.394531 1.546875 -2.90625 C 1.546875 -2.425781 1.617188 -2.015625 1.765625 -1.671875 C 1.921875 -1.335938 2.128906 -1.082031 2.390625 -0.90625 C 2.660156 -0.738281 2.976562 -0.65625 3.34375 -0.65625 C 3.75 -0.65625 4.082031 -0.742188 4.34375 -0.921875 C 4.613281 -1.109375 4.820312 -1.398438 4.96875 -1.796875 L 5.078125 -1.796875 L 5.65625 -1.46875 C 5.5 -0.976562 5.222656 -0.59375 4.828125 -0.3125 C 4.441406 -0.03125 3.945312 0.109375 3.34375 0.109375 Z M 3.34375 0.109375 "/></g></g></g><g fill="#000000" fill-opacity="1"><g transform="translate(224.716028, 17.428579)"><g><path d="M 3.34375 0.109375 C 2.789062 0.109375 2.3125 -0.00390625 1.90625 -0.234375 C 1.5 -0.472656 1.1875 -0.816406 0.96875 -1.265625 C 0.75 -1.710938 0.640625 -2.257812 0.640625 -2.90625 C 0.640625 -3.550781 0.75 -4.097656 0.96875 -4.546875 C 1.1875 -5.003906 1.5 -5.347656 1.90625 -5.578125 C 2.3125 -5.816406 2.789062 -5.9375 3.34375 -5.9375 C 3.894531 -5.9375 4.375 -5.816406 4.78125 -5.578125 C 5.1875 -5.347656 5.5 -5.003906 5.71875 -4.546875 C 5.9375 -4.097656 6.046875 -3.550781 6.046875 -2.90625 C 6.046875 -2.257812 5.9375 -1.710938 5.71875 -1.265625 C 5.5 -0.816406 5.1875 -0.472656 4.78125 -0.234375 C 4.375 -0.00390625 3.894531 0.109375 3.34375 0.109375 Z M 3.34375 -0.65625 C 3.925781 -0.65625 4.367188 -0.835938 4.671875 -1.203125 C 4.984375 -1.578125 5.140625 -2.144531 5.140625 -2.90625 C 5.140625 -3.675781 4.984375 -4.242188 4.671875 -4.609375 C 4.367188 -4.972656 3.925781 -5.15625 3.34375 -5.15625 C 2.757812 -5.15625 2.3125 -4.972656 2 -4.609375 C 1.695312 -4.242188 1.546875 -3.675781 1.546875 -2.90625 C 1.546875 -2.144531 1.695312 -1.578125 2 -1.203125 C 2.3125 -0.835938 2.757812 -0.65625 3.34375 -0.65625 Z M 3.34375 -0.65625 "/></g></g></g><g fill="#000000" fill-opacity="1"><g transform="translate(231.395221, 17.428579)"><g><path d="M 1.015625 0 L 1.015625 -5.828125 L 1.828125 -5.828125 L 1.828125 -4.96875 L 1.9375 -4.9375 C 2.132812 -5.269531 2.375 -5.519531 2.65625 -5.6875 C 2.9375 -5.851562 3.269531 -5.9375 3.65625 -5.9375 C 4.113281 -5.9375 4.460938 -5.847656 4.703125 -5.671875 C 4.953125 -5.503906 5.144531 -5.234375 5.28125 -4.859375 L 5.390625 -4.859375 C 5.597656 -5.210938 5.847656 -5.476562 6.140625 -5.65625 C 6.429688 -5.84375 6.789062 -5.9375 7.21875 -5.9375 C 7.820312 -5.9375 8.269531 -5.773438 8.5625 -5.453125 C 8.851562 -5.128906 9 -4.632812 9 -3.96875 L 9 0 L 8.140625 0 L 8.140625 -3.953125 C 8.140625 -4.367188 8.050781 -4.675781 7.875 -4.875 C 7.695312 -5.082031 7.410156 -5.1875 7.015625 -5.1875 C 6.546875 -5.1875 6.164062 -5.015625 5.875 -4.671875 C 5.582031 -4.335938 5.4375 -3.785156 5.4375 -3.015625 L 5.4375 0 L 4.578125 0 L 4.578125 -3.953125 C 4.578125 -4.367188 4.488281 -4.675781 4.3125 -4.875 C 4.132812 -5.082031 3.847656 -5.1875 3.453125 -5.1875 C 2.984375 -5.1875 2.601562 -5.019531 2.3125 -4.6875 C 2.019531 -4.363281 1.875 -3.832031 1.875 -3.09375 L 1.875 0 Z M 1.015625 0 "/></g></g></g><g fill="#000000" fill-opacity="1"><g transform="translate(241.313771, 17.428579)"><g><path d="M 1.015625 0 L 1.015625 -5.828125 L 1.828125 -5.828125 L 1.828125 -4.96875 L 1.9375 -4.9375 C 2.132812 -5.269531 2.375 -5.519531 2.65625 -5.6875 C 2.9375 -5.851562 3.269531 -5.9375 3.65625 -5.9375 C 4.113281 -5.9375 4.460938 -5.847656 4.703125 -5.671875 C 4.953125 -5.503906 5.144531 -5.234375 5.28125 -4.859375 L 5.390625 -4.859375 C 5.597656 -5.210938 5.847656 -5.476562 6.140625 -5.65625 C 6.429688 -5.84375 6.789062 -5.9375 7.21875 -5.9375 C 7.820312 -5.9375 8.269531 -5.773438 8.5625 -5.453125 C 8.851562 -5.128906 9 -4.632812 9 -3.96875 L 9 0 L 8.140625 0 L 8.140625 -3.953125 C 8.140625 -4.367188 8.050781 -4.675781 7.875 -4.875 C 7.695312 -5.082031 7.410156 -5.1875 7.015625 -5.1875 C 6.546875 -5.1875 6.164062 -5.015625 5.875 -4.671875 C 5.582031 -4.335938 5.4375 -3.785156 5.4375 -3.015625 L 5.4375 0 L 4.578125 0 L 4.578125 -3.953125 C 4.578125 -4.367188 4.488281 -4.675781 4.3125 -4.875 C 4.132812 -5.082031 3.847656 -5.1875 3.453125 -5.1875 C 2.984375 -5.1875 2.601562 -5.019531 2.3125 -4.6875 C 2.019531 -4.363281 1.875 -3.832031 1.875 -3.09375 L 1.875 0 Z M 1.015625 0 "/></g></g></g><g fill="#000000" fill-opacity="1"><g transform="translate(251.23232, 17.428579)"><g><path d="M 5.546875 -2.71875 L 1.546875 -2.71875 C 1.566406 -2.007812 1.734375 -1.488281 2.046875 -1.15625 C 2.367188 -0.820312 2.804688 -0.65625 3.359375 -0.65625 C 3.765625 -0.65625 4.09375 -0.726562 4.34375 -0.875 C 4.601562 -1.03125 4.804688 -1.265625 4.953125 -1.578125 L 5.0625 -1.578125 L 5.625 -1.25 C 5.457031 -0.820312 5.1875 -0.488281 4.8125 -0.25 C 4.4375 -0.0078125 3.953125 0.109375 3.359375 0.109375 C 2.785156 0.109375 2.296875 0 1.890625 -0.21875 C 1.492188 -0.4375 1.1875 -0.769531 0.96875 -1.21875 C 0.75 -1.675781 0.640625 -2.238281 0.640625 -2.90625 C 0.640625 -3.570312 0.753906 -4.128906 0.984375 -4.578125 C 1.210938 -5.035156 1.523438 -5.375 1.921875 -5.59375 C 2.328125 -5.820312 2.785156 -5.9375 3.296875 -5.9375 C 4.046875 -5.9375 4.628906 -5.722656 5.046875 -5.296875 C 5.460938 -4.878906 5.675781 -4.257812 5.6875 -3.4375 C 5.6875 -3.113281 5.675781 -2.894531 5.65625 -2.78125 Z M 4.828125 -3.4375 C 4.816406 -4.050781 4.679688 -4.5 4.421875 -4.78125 C 4.160156 -5.0625 3.785156 -5.203125 3.296875 -5.203125 C 2.785156 -5.203125 2.382812 -5.0625 2.09375 -4.78125 C 1.800781 -4.5 1.625 -4.050781 1.5625 -3.4375 Z M 4.828125 -3.4375 "/></g></g></g><g fill="#000000" fill-opacity="1"><g transform="translate(257.43669, 17.428579)"><g><path d="M 1.015625 0 L 1.015625 -5.828125 L 1.828125 -5.828125 L 1.828125 -4.90625 L 1.9375 -4.890625 C 2.132812 -5.222656 2.382812 -5.476562 2.6875 -5.65625 C 2.988281 -5.84375 3.351562 -5.9375 3.78125 -5.9375 C 4.488281 -5.9375 5 -5.753906 5.3125 -5.390625 C 5.625 -5.035156 5.78125 -4.488281 5.78125 -3.75 L 5.78125 0 L 4.921875 0 L 4.921875 -3.734375 C 4.921875 -4.078125 4.875 -4.351562 4.78125 -4.5625 C 4.695312 -4.78125 4.5625 -4.9375 4.375 -5.03125 C 4.1875 -5.132812 3.9375 -5.1875 3.625 -5.1875 C 3.101562 -5.1875 2.679688 -5.007812 2.359375 -4.65625 C 2.035156 -4.3125 1.875 -3.753906 1.875 -2.984375 L 1.875 0 Z M 1.015625 0 "/></g></g></g><g fill="#000000" fill-opacity="1"><g transform="translate(264.136986, 17.428579)"><g><path d="M 3.9375 -0.921875 L 4.21875 -0.3125 C 4.070312 -0.164062 3.890625 -0.0625 3.671875 0 C 3.453125 0.0703125 3.210938 0.109375 2.953125 0.109375 C 1.835938 0.109375 1.28125 -0.453125 1.28125 -1.578125 L 1.28125 -5.125 L 0.265625 -5.125 L 0.265625 -5.828125 L 1.28125 -5.828125 L 1.28125 -7.0625 L 2.140625 -7.203125 L 2.140625 -5.828125 L 4.015625 -5.828125 L 4.015625 -5.125 L 2.140625 -5.125 L 2.140625 -1.65625 C 2.140625 -0.988281 2.429688 -0.65625 3.015625 -0.65625 C 3.328125 -0.65625 3.597656 -0.742188 3.828125 -0.921875 Z M 3.9375 -0.921875 "/></g></g></g></svg>