<?xml version="1.0" standalone="no"?>
<!DOCTYPE svg PUBLIC "-//W3C//DTD SVG 1.1//EN" "http://www.w3.org/Graphics/SVG/1.1/DTD/svg11.dtd">
<svg xmlns="http://www.w3.org/2000/svg" id="Layer_2" data-name="Layer 2" viewBox="0 0 113.16 82.86" width="113.16000366210938" height="82.86000061035156">
  <defs>
    <style>
      .cls-1 {
        fill: #1c89cb;
      }

      .cls-2 {
        fill: #aaa;
      }
    </style>
  </defs>
  <g id="_レイヤー" data-name="レイヤー">
    <g>
      <path class="cls-2" d="m81.02,5.64c-.21-.25-.51-.4-.83-.43l-18.03-1.54-.33-2.6c-.08-.67-.7-1.14-1.36-1.06l-16.73,2.1c-.07-.02-.13-.03-.2-.04L20.54.11c-.66-.06-1.26.45-1.32,1.11l-.34,4.01L1.07,7.48c-.66.08-1.14.7-1.06,1.37l9.09,72.31c.04.33-.03.65.1.97.19.45.64.74,1.12.74h59.87c.67,0,1.22-.55,1.22-1.22v-1.59l2.36.2c.66.06,1.26-.45,1.32-1.11l6.2-72.61c.03-.33-.07-.65-.28-.89ZM9.11,61.66L2.58,9.75l6.53-.82v52.74ZM21.55,2.65l10.68.91-10.87,1.37.2-2.28Zm38.01-.07l.63,4.96H20.12L59.56,2.58Zm13.21,75.14l-1.35-.11v-35.66c0-.67-.55-1.22-1.22-1.22s-1.22.55-1.22,1.22v38.48H11.55V9.98h57.43v26.27c0,.67.54,1.22,1.22,1.22s1.22-.55,1.22-1.22V8.76c0-.68-.55-1.22-1.22-1.22h-7.56l-.18-1.4,16.3,1.39-6,70.19Z"/>
      <path class="cls-2" d="m63.69,14.05h-6.51c-.41,0-.79.2-1.01.54l-2.76,4.14c-2.97-2.13-6.61-3.38-10.54-3.38-.67,0-1.22.54-1.22,1.22v16.92c0,.67.55,1.22,1.22,1.22h16.92c.67,0,1.22-.55,1.22-1.22,0-5.19-2.19-9.89-5.71-13.19l2.54-3.8h5.85c.67,0,1.22-.55,1.22-1.22s-.55-1.22-1.22-1.22Zm-5.17,18.22h-14.43v-14.43c2.96.23,5.69,1.28,7.96,2.93l-1.09,1.63c-.34.51-.24,1.22.23,1.61.55.46,1.4.34,1.8-.26l.93-1.4c2.6,2.58,4.3,6.05,4.59,9.91Z"/>
      <path class="cls-2" d="m63.69,54.39h-11.03l-1.95-3.11c3.15-3.26,5.09-7.7,5.09-12.59,0-.67-.54-1.22-1.22-1.22h-15.7v-15.7c0-.68-.54-1.22-1.22-1.22-10,0-18.14,8.14-18.14,18.14s8.14,18.14,18.14,18.14c4.23,0,8.12-1.46,11.21-3.89l2.07,3.31c.22.36.61.58,1.04.58h11.71c.67,0,1.22-.55,1.22-1.22s-.55-1.22-1.22-1.22Zm-17.18-9.84c-.36-.57-1.11-.75-1.68-.39-.57.35-.74,1.11-.39,1.68l3.14,5.02c-2.71,2.2-6.15,3.53-9.91,3.53-8.66,0-15.7-7.04-15.7-15.7s6.39-15.03,14.48-15.65v15.65c0,.67.55,1.22,1.22,1.22h15.65c-.27,3.53-1.72,6.73-3.94,9.22l-2.87-4.58Z"/>
      <path class="cls-2" d="m27.25,60.9h-10.41c-.67,0-1.22.55-1.22,1.22s.54,1.22,1.22,1.22h10.41c.67,0,1.22-.55,1.22-1.22s-.55-1.22-1.22-1.22Z"/>
      <path class="cls-2" d="m42.87,60.9h-10.41c-.68,0-1.22.55-1.22,1.22s.55,1.22,1.22,1.22h10.41c.68,0,1.22-.55,1.22-1.22s-.55-1.22-1.22-1.22Z"/>
      <path class="cls-2" d="m33.76,67.41h-16.92c-.67,0-1.22.54-1.22,1.22s.54,1.22,1.22,1.22h16.92c.67,0,1.22-.54,1.22-1.22s-.55-1.22-1.22-1.22Z"/>
      <path class="cls-2" d="m42.87,67.41h-3.9c-.68,0-1.22.54-1.22,1.22s.55,1.22,1.22,1.22h3.9c.68,0,1.22-.54,1.22-1.22,0-.67-.55-1.22-1.22-1.22Z"/>
      <path class="cls-2" d="m22.04,73.91h-5.21c-.67,0-1.22.55-1.22,1.22s.54,1.22,1.22,1.22h5.21c.67,0,1.22-.55,1.22-1.22s-.55-1.22-1.22-1.22Z"/>
      <path class="cls-2" d="m42.87,73.91h-15.62c-.67,0-1.22.55-1.22,1.22s.55,1.22,1.22,1.22h15.62c.68,0,1.22-.55,1.22-1.22s-.55-1.22-1.22-1.22Z"/>
    </g>
    <g>
      <path class="cls-1" d="m85.32,68.42c-.38,1.83-.82,3.71-1.32,5.65l-2.2,8.79h-3.57l-6.23-19.6h3.82l2.36,7.81c.71,2.45,1.29,4.67,1.73,6.65h.09c.43-2.13.93-4.31,1.49-6.55l2.02-7.91h3.69l2.02,7.91c.57,2.22,1.06,4.4,1.49,6.55h.09c.54-2.34,1.11-4.56,1.73-6.65l2.36-7.81h3.82l-6.22,19.6h-3.57l-2.2-8.79c-.5-1.98-.94-3.87-1.32-5.65h-.09Z"/>
      <path class="cls-1" d="m100.68,73.68h4.78v-5.04h2.93v5.04h4.78v2.8h-4.78v5.02h-2.93v-5.02h-4.78v-2.8Z"/>
    </g>
  </g>
</svg>