<?xml version="1.0" standalone="no"?>
<!DOCTYPE svg PUBLIC "-//W3C//DTD SVG 1.1//EN" "http://www.w3.org/Graphics/SVG/1.1/DTD/svg11.dtd">
<svg xmlns="http://www.w3.org/2000/svg" id="Layer_2" data-name="Layer 2" viewBox="0 0 123.66 113.14" width="123.66000366210938" height="113.13999938964844">
  <defs>
    <style>
      .cls-1 {
        fill: #1c89cb;
        font-family: Corbel-Bold, Corbel;
        font-size: 30px;
        font-weight: 700;
      }

      .cls-2 {
        fill: #aaa;
      }
    </style>
  </defs>
  <g id="_レイヤー" data-name="レイヤー">
    <g>
      <path class="cls-2" d="m32.17,73.62l-.06-.06c-.81-.8-2.11-.8-2.92,0-.8.81-.8,2.11,0,2.92l.07.06c.4.4.93.6,1.45.6s1.06-.2,1.47-.61c.8-.81.8-2.12-.01-2.92Z"/>
      <path class="cls-2" d="m76.48,29.19c-13.04-13.04-34.25-13.04-47.29,0-10.67,10.67-12.87,27.25-5.35,40.31.57.99,1.83,1.33,2.82.76.99-.57,1.33-1.83.76-2.82-6.59-11.45-4.66-25.98,4.69-35.33,11.43-11.43,30.02-11.43,41.45,0,11.43,11.42,11.43,30.02,0,41.45-9.41,9.41-24,11.3-35.48,4.6-.98-.57-2.25-.24-2.82.74-.58.99-.25,2.24.74,2.82,5.24,3.06,11.04,4.54,16.81,4.54,8.66,0,17.23-3.35,23.67-9.8,13.04-13.04,13.04-34.25,0-47.29Z"/>
      <path class="cls-2" d="m105.66,43.77c0-1.02-.74-1.88-1.74-2.04l-7.62-1.21-4.04-9.75,4.53-6.24c.59-.82.51-1.96-.21-2.68l-12.8-12.79c-.72-.72-1.85-.8-2.67-.21l-6.24,4.53-9.75-4.04-1.21-7.61c-.16-1-1.02-1.74-2.04-1.74h-18.1c-1.01,0-1.88.75-2.04,1.75l-1.21,7.62-9.75,4.05-6.25-4.53c-.82-.59-1.95-.5-2.67.21l-12.79,12.8c-.71.72-.8,1.85-.21,2.67l4.53,6.24-4.04,9.75-7.61,1.21C.74,41.93,0,42.79,0,43.81v18.1c0,1.02.74,1.88,1.75,2.04l7.62,1.21,4.04,9.74-4.53,6.25c-.6.82-.51,1.95.21,2.67l12.8,12.79c.72.72,1.85.81,2.67.21l6.24-4.53,9.75,4.04,1.21,7.62c.16,1,1.02,1.74,2.04,1.74h18.1c1.01,0,1.88-.74,2.04-1.75l1.21-7.62,9.75-4.04,6.24,4.53c.82.6,1.96.5,2.67-.21l12.79-12.8c.72-.72.8-1.85.21-2.67l-4.53-6.24,4.04-9.75,7.62-1.21c1-.16,1.74-1.03,1.74-2.04v-18.1Zm-11.13,17.45c-.71.11-1.31.58-1.58,1.25l-4.92,11.89c-.28.67-.19,1.43.24,2l4.18,5.75-10.3,10.31-5.75-4.18c-.58-.42-1.34-.51-2-.23l-11.88,4.93c-.66.28-1.13.88-1.25,1.58l-1.11,7.02h-14.57s-1.12-7.01-1.12-7.01c-.11-.71-.59-1.31-1.25-1.58l-11.89-4.92c-.25-.11-.52-.16-.79-.16-.43,0-.85.13-1.21.39l-5.75,4.17-10.31-10.3,4.18-5.75c.42-.58.51-1.34.23-2l-4.93-11.88c-.27-.66-.87-1.14-1.58-1.25l-7.02-1.11v-14.57s7.01-1.12,7.01-1.12c.71-.11,1.31-.58,1.58-1.25l4.92-11.89c.27-.66.19-1.42-.24-2l-4.17-5.74,10.3-10.31,5.75,4.17c.58.42,1.34.51,2,.23l11.88-4.93c.66-.27,1.13-.87,1.25-1.58l1.11-7.02h14.58s1.12,7.01,1.12,7.01c.11.71.59,1.31,1.25,1.58l11.89,4.92c.66.28,1.42.19,2-.23l5.75-4.17,10.31,10.3-4.17,5.75c-.42.58-.51,1.34-.23,2l4.92,11.88c.28.67.88,1.13,1.58,1.25l7.02,1.11v14.57s-7.01,1.12-7.01,1.12Z"/>
      <path class="cls-2" d="m71.64,55.41c-2.58-2.34-6.05-3.36-9.47-2.83l-9.07-9.07c.55-3.59-.63-7.28-3.23-9.88-3.25-3.25-8.12-4.25-12.39-2.54-.64.26-1.11.82-1.25,1.5-.14.68.07,1.38.56,1.87l2.99,2.99c.63.63.63,1.66,0,2.3-.63.63-1.67.63-2.3,0l-3-3c-.49-.49-1.19-.7-1.87-.57-.68.14-1.24.61-1.5,1.25-1.8,4.45-.62,9.6,2.93,12.82,2.58,2.35,6.05,3.37,9.48,2.83l9.05,9.05c-.56,3.59.63,7.29,3.23,9.89,2.2,2.2,5.13,3.37,8.12,3.37,1.45,0,2.91-.27,4.31-.84.64-.26,1.11-.82,1.25-1.5.14-.68-.08-1.38-.57-1.87l-2.98-2.98c-.64-.63-.64-1.66,0-2.3.63-.63,1.66-.63,2.29,0l2.97,2.97c.49.49,1.19.7,1.88.56.68-.14,1.24-.61,1.5-1.25,1.78-4.43.6-9.58-2.94-12.79Zm-.49,7.59c-2.24-2.24-5.89-2.24-8.13,0-2.24,2.24-2.24,5.89,0,8.13l.1.1c-1.63-.18-3.19-.9-4.4-2.11-1.85-1.85-2.58-4.58-1.9-7.11.19-.71-.01-1.47-.53-1.99l-10.63-10.63c-.39-.39-.92-.6-1.46-.6-.18,0-.36.02-.53.06-2.45.65-5,.04-6.85-1.64-1.36-1.23-2.17-2.9-2.37-4.65l.12.12c2.24,2.24,5.89,2.24,8.13,0,2.24-2.25,2.24-5.9,0-8.14l-.1-.1c1.62.19,3.15.91,4.35,2.11,1.85,1.85,2.58,4.57,1.91,7.11-.19.71.01,1.47.54,1.99l10.63,10.64c.52.52,1.28.72,1.99.53,2.44-.64,5-.03,6.84,1.65,1.34,1.22,2.16,2.87,2.36,4.61l-.07-.07Z"/>
      <path class="cls-2" d="m71.69,38.1c-3.4-4.35-8.23-7.4-13.58-8.61-1.11-.25-2.22.45-2.47,1.56-.25,1.11.45,2.22,1.56,2.47,4.43,1,8.42,3.52,11.23,7.12.41.52,1.01.79,1.63.79.45,0,.89-.14,1.27-.44.9-.7,1.06-2,.35-2.89Z"/>
      <path class="cls-2" d="m75.63,45.54l-.03-.1c-.35-1.08-1.51-1.68-2.6-1.33-1.08.35-1.68,1.51-1.33,2.6l.03.08c.28.88,1.09,1.44,1.96,1.44.21,0,.42-.03.63-.1,1.09-.34,1.68-1.51,1.34-2.59Z"/>
    </g>
    <text class="cls-1" transform="translate(80.54 105.94)"><tspan x="0" y="0">W+</tspan></text>
  </g>
</svg>